<?xml version="1.0" standalone="no"?>
<!DOCTYPE svg PUBLIC "-//W3C//DTD SVG 20010904//EN"
 "http://www.w3.org/TR/2001/REC-SVG-20010904/DTD/svg10.dtd">
<svg version="1.0" xmlns="http://www.w3.org/2000/svg"
 width="612.000000pt" height="612.000000pt" viewBox="0 0 612.000000 612.000000"
 preserveAspectRatio="xMidYMid meet">

<g transform="translate(0.000000,612.000000) scale(0.100000,-0.100000)"
fill="#000000" stroke="none">
<path d="M10 5560 c0 -308 2 -560 5 -560 6 0 263 148 295 170 41 28 155 96
174 103 9 4 91 50 182 102 90 53 208 119 261 147 53 28 124 68 157 89 101 64
298 182 346 208 25 13 131 74 235 136 105 62 208 121 230 131 l40 19 -145 6
c-80 4 -513 7 -962 8 l-818 1 0 -560z"/>
<path d="M2455 6107 c-22 -5 -47 -12 -55 -15 -8 -3 -24 -7 -35 -9 -27 -4 -66
-23 -90 -44 -11 -10 -45 -26 -75 -37 -122 -43 -159 -64 -165 -94 -4 -15 -15
-33 -25 -38 -11 -6 -32 -33 -47 -60 -15 -28 -33 -50 -39 -50 -28 0 -52 -50
-62 -126 -13 -105 -35 -177 -63 -211 -21 -26 -351 -224 -385 -231 -8 -2 -14
-7 -14 -11 0 -4 -24 -21 -52 -36 -29 -16 -109 -61 -178 -100 -69 -40 -155 -88
-190 -107 -64 -35 -79 -43 -195 -110 -138 -80 -190 -112 -195 -119 -3 -4 -41
-28 -85 -52 -44 -24 -98 -55 -120 -67 -22 -13 -102 -59 -178 -102 -76 -43
-152 -87 -168 -99 l-29 -20 0 -1024 c0 -1116 -3 -1059 56 -1009 31 26 90 65
249 164 55 35 112 71 127 81 15 11 30 19 34 19 4 0 37 19 73 42 36 23 116 73
176 111 61 38 112 72 115 76 7 9 58 41 115 71 27 15 131 74 230 132 99 57 209
119 244 137 86 43 225 123 231 133 3 4 26 18 50 31 25 13 71 38 102 56 65 37
64 37 88 -54 7 -27 21 -63 30 -80 10 -16 21 -44 24 -61 4 -18 36 -76 72 -129
35 -54 64 -107 64 -117 0 -10 -8 -36 -18 -56 -39 -78 -106 -198 -127 -227 -12
-16 -30 -45 -39 -62 -9 -18 -21 -33 -27 -33 -6 0 -23 -8 -37 -19 -15 -10 -80
-46 -145 -80 -65 -34 -135 -72 -155 -84 -63 -39 -198 -87 -242 -87 -20 0 -105
-30 -190 -67 -19 -8 -71 -36 -114 -61 -68 -39 -91 -47 -170 -57 -64 -9 -108
-9 -147 -2 -51 9 -66 7 -160 -23 -211 -65 -231 -76 -320 -161 -79 -77 -147
-133 -175 -143 l-24 -10 0 -409 c0 -399 0 -409 18 -386 76 99 138 217 177 336
45 139 115 209 175 178 67 -36 68 -36 24 -102 -22 -33 -56 -102 -74 -154 -35
-100 -124 -285 -184 -383 -20 -33 -36 -65 -36 -70 0 -6 18 -20 40 -30 22 -11
40 -24 40 -29 0 -6 3 -7 7 -4 3 4 25 -4 47 -17 23 -13 59 -29 81 -36 22 -7 45
-15 50 -19 6 -3 14 -6 19 -6 5 0 10 -8 12 -18 3 -25 14 -35 14 -13 0 13 5 16
23 11 45 -13 67 -29 67 -49 1 -20 1 -20 14 -3 13 16 15 16 30 2 8 -9 17 -15
18 -15 11 5 59 -15 70 -27 17 -20 36 -136 27 -160 -6 -13 -8 -14 -9 -3 -1 10
-4 7 -10 -7 -6 -15 -15 -20 -29 -16 -12 3 -21 9 -21 14 0 5 -3 8 -7 7 -17 -3
-43 15 -43 31 0 14 -2 14 -10 1 -6 -10 -10 -11 -10 -3 0 7 -3 12 -7 12 -23 -4
-32 3 -26 18 4 10 2 14 -5 9 -6 -3 -13 -2 -17 4 -3 5 -13 10 -21 10 -8 0 -36
15 -62 33 -26 19 -65 40 -87 47 -22 7 -44 16 -50 20 -11 8 -195 70 -208 70 -5
0 -7 -48 -6 -108 3 -118 -9 -252 -22 -252 -5 0 -9 -58 -9 -130 l0 -130 45 0
c25 0 45 5 45 10 0 6 -11 42 -24 80 -33 92 -44 165 -25 157 8 -3 58 -25 112
-48 106 -47 101 -40 124 -154 l9 -40 509 0 510 0 3 40 c2 22 19 141 38 265 19
124 39 270 44 325 5 55 14 124 20 154 16 84 18 81 -57 80 -38 0 -91 -4 -119
-8 -47 -6 -102 0 -244 28 -61 12 -131 39 -152 58 -10 9 -33 17 -50 18 -103 8
-148 18 -153 37 -9 25 -8 125 0 138 4 6 21 9 40 6 40 -7 155 -56 155 -66 0 -4
11 -11 25 -14 25 -6 25 -7 8 -34 l-17 -27 29 25 c15 14 25 19 20 11 -6 -10 -2
-11 15 -6 12 4 20 3 17 -1 -3 -5 24 -7 60 -6 45 3 69 0 81 -10 30 -26 142 -41
208 -29 32 6 79 12 104 14 l45 2 0 510 c0 478 -6 645 -24 645 -4 0 -15 -8 -23
-17 -71 -79 -73 -80 -127 -87 -65 -9 -78 -1 -24 13 58 16 105 51 126 93 27 56
63 76 137 80 l63 3 -39 25 c-21 14 -39 32 -39 40 0 18 64 50 85 42 46 -16 121
-86 87 -81 -6 1 -19 0 -27 -4 -8 -3 -22 -8 -30 -10 -8 -3 4 -6 27 -6 23 -1 48
-4 57 -7 24 -9 20 -43 -6 -48 -13 -3 -41 -9 -63 -13 l-40 -9 -1 -244 c-1 -135
3 -283 7 -330 5 -47 11 -202 15 -345 3 -143 10 -263 13 -268 4 -4 16 -9 27
-11 10 -3 36 -11 56 -20 21 -9 61 -16 91 -16 29 0 103 -5 163 -10 60 -6 131
-12 158 -14 26 -3 49 -6 51 -8 14 -17 23 -47 15 -50 -6 -2 -3 -15 5 -32 13
-24 13 -31 3 -38 -10 -6 -10 -8 2 -8 12 -1 11 -4 -4 -15 -19 -14 -78 -12 -146
6 -19 5 -84 12 -145 15 -60 3 -149 14 -196 25 -48 10 -93 19 -102 19 -19 0
-25 -24 -42 -178 -7 -70 -16 -138 -19 -152 -3 -14 -15 -83 -26 -155 -12 -71
-25 -148 -30 -170 -5 -22 -12 -70 -16 -107 l-7 -68 580 0 581 0 7 67 c4 38 18
133 33 213 28 155 33 280 14 346 -11 38 -17 43 -61 58 -27 9 -98 25 -158 36
-165 32 -170 34 -168 75 2 21 -2 33 -9 32 -6 -1 -11 8 -10 21 0 17 -3 21 -15
17 -9 -3 -4 6 11 22 26 26 30 27 75 16 124 -29 178 -45 239 -73 37 -16 69 -30
71 -30 2 0 1 37 -3 83 -4 45 -7 89 -7 97 1 121 2 126 31 141 15 7 46 26 69 41
23 15 45 28 49 28 5 0 -2 -315 -10 -407 -1 -13 8 -19 32 -21 17 -2 32 -6 32
-10 0 -4 18 -6 40 -4 22 2 48 1 58 -3 19 -7 162 -18 230 -17 40 0 42 -1 36
-24 -5 -20 -2 -24 15 -24 12 0 21 5 21 11 0 5 -5 7 -11 3 -7 -4 -10 1 -7 12 3
15 11 19 46 17 31 -1 42 2 42 12 0 13 12 17 36 14 4 0 10 5 14 11 8 12 22 16
170 45 47 9 92 20 100 24 20 11 26 226 10 364 -6 55 -10 101 -8 103 3 2 32 -1
67 -7 88 -16 92 -31 60 -234 -12 -79 -12 -192 1 -200 5 -3 49 1 97 9 133 22
334 39 463 38 133 -1 235 13 303 39 59 23 56 23 50 -1 -3 -11 1 -30 10 -43 23
-35 11 -73 -29 -92 -48 -22 -119 -33 -279 -40 -77 -3 -158 -8 -180 -10 -22 -2
-65 -7 -95 -10 -30 -3 -77 -8 -105 -10 -49 -5 -157 -21 -204 -31 -27 -6 -27
-2 15 -331 13 -106 27 -233 31 -283 l6 -90 593 0 593 0 -4 28 c-34 188 -64
311 -119 487 -103 329 -110 348 -128 353 -18 4 -36 42 -40 87 -2 18 -8 29 -15
28 -19 -4 -16 11 5 24 18 10 17 19 -24 175 -54 208 -131 444 -199 609 -29 71
-52 129 -50 129 2 0 31 -53 66 -117 34 -65 103 -185 152 -268 135 -225 149
-257 200 -450 l13 -50 63 -7 c55 -6 69 -12 101 -43 20 -20 46 -35 59 -35 24 0
122 31 131 41 3 3 15 11 28 18 18 10 27 10 38 0 8 -6 14 -15 14 -20 0 -4 5
-20 11 -36 8 -22 12 -24 19 -13 9 14 8 68 -5 240 -3 41 -8 107 -10 145 -3 39
-7 97 -10 130 -3 33 -7 119 -10 190 -2 72 -11 151 -18 177 -8 26 -13 49 -10
52 7 7 55 -13 75 -31 9 -8 21 -44 28 -82 l11 -67 42 -11 c41 -12 78 -42 145
-120 18 -21 46 -54 63 -73 69 -77 129 -152 140 -172 14 -25 29 -138 18 -138
-4 0 -15 12 -25 27 -10 16 -50 62 -89 103 -39 41 -90 103 -113 137 -23 34 -54
70 -69 81 -44 31 -110 62 -117 55 -3 -4 -6 -175 -6 -382 -1 -342 -2 -373 -16
-348 -16 29 -35 30 -79 3 -43 -27 -74 -27 -128 -2 -43 20 -70 25 -152 27
l-100 3 2 -56 c2 -65 11 -98 83 -298 75 -209 95 -280 116 -412 l18 -118 503 0
503 0 0 3060 0 3061 -1812 -2 c-1083 -2 -1829 -6 -1853 -12z m122 -199 c-3 -8
-6 -5 -6 6 -1 11 2 17 5 13 3 -3 4 -12 1 -19z m581 -369 c-10 -5 -18 -15 -18
-20 0 -6 5 -7 12 -3 8 5 9 2 5 -10 -6 -14 -3 -16 13 -11 23 7 126 -48 122 -65
-2 -7 6 -9 20 -5 17 5 19 4 9 -3 -11 -8 -7 -14 20 -31 19 -12 41 -21 49 -21 9
0 23 -9 33 -21 12 -13 24 -18 37 -14 14 5 20 2 20 -10 0 -9 14 -28 30 -42 34
-28 39 -48 11 -40 -17 4 -19 2 -10 -21 6 -15 15 -32 21 -39 6 -7 7 -13 2 -13
-5 0 8 -15 28 -33 21 -19 36 -36 34 -38 -2 -2 16 -17 40 -34 33 -22 43 -35 40
-49 -3 -12 2 -20 15 -23 11 -3 19 -14 19 -26 0 -11 11 -34 24 -52 51 -66 99
-171 111 -243 l5 -32 -42 6 c-41 6 -122 45 -143 69 -5 6 -19 18 -29 25 -15 12
-18 12 -12 2 7 -11 4 -12 -10 -5 -11 5 -35 10 -54 12 -19 1 -62 9 -95 17 -33
9 -83 18 -111 21 -44 4 -54 2 -73 -18 -17 -19 -24 -21 -30 -10 -6 9 -11 10
-15 2 -10 -16 -26 -13 -20 3 7 19 -36 10 -53 -11 -6 -8 -16 -12 -21 -9 -6 3
-13 -6 -16 -20 -5 -20 -10 -23 -20 -15 -10 9 -15 8 -20 -5 -3 -8 -11 -14 -18
-12 -6 2 -25 -8 -41 -23 -17 -15 -52 -33 -79 -40 -52 -12 -198 -18 -198 -8 0
3 -19 12 -42 19 -24 8 -48 17 -54 22 -6 4 -14 5 -17 1 -4 -3 -7 2 -7 13 0 16
-2 17 -10 4 -9 -13 -11 -13 -19 0 -6 8 -16 24 -25 35 -14 20 -15 20 -24 -5 -9
-24 -9 -24 -20 -3 -11 21 -62 38 -62 21 0 -5 -9 -4 -20 2 -15 8 -19 7 -16 -2
1 -7 1 -10 -2 -5 -2 4 -13 12 -24 18 -11 6 -18 7 -15 2 3 -5 -36 -9 -86 -9
-51 -1 -132 -6 -180 -11 -80 -10 -92 -14 -116 -41 -16 -16 -41 -37 -58 -45
l-30 -16 -1 30 c-1 25 5 33 28 43 28 11 28 12 10 24 -12 7 -20 8 -20 2 0 -5
-5 -10 -11 -10 -5 0 -7 5 -4 10 3 6 0 10 -8 10 -10 0 -13 10 -10 33 2 17 4 39
5 48 1 9 8 15 14 12 8 -3 11 2 8 14 -5 17 13 67 36 103 9 15 41 88 53 123 4 9
17 22 29 27 21 8 21 9 3 10 -11 1 -14 4 -7 7 6 2 10 9 6 14 -3 5 0 9 5 9 6 0
11 7 11 15 0 8 5 15 10 15 6 0 10 9 10 20 0 11 5 20 11 20 6 0 9 6 7 12 -5 13
62 74 100 91 12 6 22 14 22 19 0 4 6 8 13 8 7 0 30 9 52 20 77 39 154 60 223
60 57 0 72 4 87 20 14 15 26 19 46 15 19 -4 28 -1 32 9 4 9 12 16 19 16 9 0 9
-3 -2 -10 -13 -8 -13 -10 0 -14 38 -14 171 15 205 46 5 4 16 8 25 8 9 0 26 9
38 21 22 20 49 18 36 -3 -5 -7 -2 -8 6 -3 8 5 37 7 65 6 37 -2 55 2 64 13 8 9
19 16 25 16 6 0 3 -5 -6 -11z m2257 -223 c31 -31 37 -89 33 -316 -3 -180 -4
-187 -31 -243 -30 -61 -84 -107 -212 -180 -63 -35 -161 -93 -330 -192 -55 -32
-134 -76 -175 -98 -41 -21 -79 -45 -83 -53 -4 -8 -12 -14 -18 -14 -5 0 -35
-16 -65 -35 -30 -19 -56 -35 -59 -35 -5 0 -219 -124 -314 -182 -35 -21 -65
-37 -67 -35 -4 3 7 100 26 235 13 91 6 142 -31 213 -15 30 -19 57 -18 124 1
53 -2 90 -9 97 -9 9 10 25 76 64 130 78 357 207 437 250 39 20 99 53 135 74
211 121 308 177 335 196 48 33 216 125 254 139 55 21 89 18 116 -9z m-1992
-663 c-13 -2 -33 -2 -45 0 -13 2 -3 4 22 4 25 0 35 -2 23 -4z m-84 -7 c-2 -2
-26 -6 -54 -9 -34 -4 -42 -3 -25 3 25 8 87 13 79 6z m-112 -22 c-3 -3 -12 -4
-19 -1 -8 3 -5 6 6 6 11 1 17 -2 13 -5z m-749 -21 c-10 -2 -26 -2 -35 0 -10 3
-2 5 17 5 19 0 27 -2 18 -5z m127 -18 c67 -17 36 -18 -40 -1 -33 8 -49 14 -35
14 14 0 48 -6 75 -13z m1236 -170 c16 -93 29 -190 29 -215 0 -61 14 -81 29
-44 l11 29 -5 -32 c-6 -44 -41 -116 -69 -142 -30 -28 -138 -48 -306 -57 -139
-7 -250 5 -307 33 -37 18 -83 80 -98 133 -7 23 -7 23 9 7 16 -15 46 -24 46
-13 0 2 -16 14 -35 26 -30 18 -55 64 -55 102 0 3 24 -7 54 -23 58 -31 224 -76
302 -82 72 -5 164 25 164 53 0 18 6 21 90 34 22 4 51 21 78 47 46 44 49 60 31
139 -15 67 -20 122 -9 115 5 -3 2 11 -6 30 -14 34 -14 36 2 33 14 -2 22 -34
45 -173z m103 101 c7 -31 5 -40 -10 -51 -36 -28 -44 -19 -44 51 l0 66 22 -14
c13 -9 27 -32 32 -52z m-1257 48 c-3 -3 -12 -4 -19 -1 -8 3 -5 6 6 6 11 1 17
-2 13 -5z m-842 -91 c-2 -20 1 -45 6 -56 15 -27 5 -31 -30 -12 -35 18 -40 47
-15 83 24 35 43 28 39 -15z m2099 -125 c-5 -47 -9 -54 -27 -53 -23 2 -40 38
-32 66 6 17 55 52 63 45 1 -2 0 -28 -4 -58z m132 27 c17 -42 18 -68 2 -62 -7
2 -25 -2 -40 -10 l-28 -14 0 38 c0 58 10 83 32 83 12 0 24 -12 34 -35z m-1124
-12 c10 -9 18 -21 18 -26 0 -6 -8 -3 -18 6 -9 9 -29 20 -42 26 l-25 10 24 0
c14 1 33 -6 43 -16z m-1123 -54 c-7 -14 -14 -18 -21 -11 -13 13 -2 32 18 32
12 0 13 -4 3 -21z m-117 -21 c-15 -15 -24 -6 -16 16 5 12 10 14 17 7 8 -8 8
-14 -1 -23z m1204 3 c43 -20 109 -102 157 -198 18 -35 49 -70 101 -113 81 -66
93 -85 74 -107 -19 -23 -108 -10 -129 18 -15 20 -22 21 -80 15 -35 -4 -86 -6
-114 -5 -154 7 -184 3 -214 -25 -48 -46 -152 -44 -159 3 -3 16 14 40 64 90 60
61 72 80 113 182 38 92 53 118 80 136 41 28 54 28 107 4z m-250 -63 c-10 -60
-62 -111 -160 -157 -74 -35 -78 -38 -52 -45 16 -4 24 -11 20 -18 -4 -7 -3 -8
4 -4 6 4 9 13 5 21 -3 9 1 15 11 15 9 0 16 -4 16 -9 0 -18 -31 -40 -48 -34 -9
3 -14 3 -10 -2 4 -4 -3 -16 -15 -26 -22 -18 -22 -18 18 -13 22 3 49 7 60 9 19
4 19 3 2 -10 -34 -25 -150 -37 -325 -33 -94 2 -165 7 -159 11 7 4 -5 5 -25 1
-26 -4 -38 -3 -38 5 0 7 -4 10 -9 7 -14 -9 -42 4 -35 16 3 5 -3 20 -15 32 -25
27 -17 62 14 62 11 0 49 3 85 7 36 4 101 4 145 0 114 -11 208 7 323 62 66 32
105 58 140 95 26 27 49 50 51 50 2 0 1 -19 -3 -42z m1261 10 c-3 -7 -5 -2 -5
12 0 14 2 19 5 13 2 -7 2 -19 0 -25z m-2247 -140 c0 -5 -4 -8 -10 -8 -5 0 -10
10 -10 23 0 18 2 19 10 7 5 -8 10 -18 10 -22z m2401 -88 c-6 -38 -11 -107 -11
-155 0 -93 -13 -137 -51 -171 -62 -54 -78 -33 -80 104 -1 91 -8 80 -24 -43 -6
-46 -8 -48 -21 -30 -8 10 -14 13 -14 7 0 -25 -29 -10 -45 23 -12 27 -30 42
-70 60 -30 14 -58 25 -63 25 -5 0 -19 11 -32 25 -13 14 -29 25 -36 25 -6 0
-17 6 -23 13 -6 8 -35 15 -68 16 -69 3 -85 11 -21 11 63 0 269 36 314 55 20 8
52 31 70 51 l34 35 0 -67 0 -68 29 34 c19 23 31 51 35 83 7 51 26 60 36 17 5
-21 8 -18 25 25 18 46 20 48 23 22 2 -15 -1 -59 -7 -97z m-2211 55 c0 -5 -5
-3 -10 5 -5 8 -10 20 -10 25 0 6 5 3 10 -5 5 -8 10 -19 10 -25z m-172 -90 c6
-22 18 -74 28 -115 9 -41 21 -83 26 -94 10 -18 2 -103 -12 -141 -7 -18 -9 -18
-19 9 -6 16 -16 74 -22 129 -5 55 -14 122 -20 150 -11 63 -11 151 1 122 4 -11
13 -38 18 -60z m242 -63 c19 -6 72 -17 118 -23 45 -7 82 -16 82 -20 0 -6 -26
-21 -42 -23 -3 -1 -20 -13 -36 -28 -17 -14 -32 -24 -35 -21 -8 8 -39 -45 -33
-56 4 -5 2 -12 -3 -15 -8 -5 -48 40 -49 54 0 12 -26 60 -31 60 -4 0 -7 -10 -6
-22 0 -13 -4 -24 -10 -26 -9 -3 -38 118 -30 126 2 3 -1 14 -7 25 l-10 20 28
-20 c16 -11 45 -25 64 -31z m1370 -207 c50 -36 70 -65 46 -65 -7 0 -19 7 -26
15 -17 21 -30 19 -30 -5 0 -11 -4 -20 -10 -20 -5 0 -10 -9 -10 -21 0 -19 -5
-20 -62 -17 -34 2 -63 8 -65 14 -5 15 66 57 83 50 11 -4 14 6 14 39 0 25 3 45
6 45 4 0 28 -16 54 -35z m-766 -26 c5 -25 0 -38 -22 -64 -33 -40 -53 -50 -64
-33 -4 7 -8 9 -8 4 0 -6 -5 -5 -11 1 -9 9 -15 8 -26 -3 -16 -16 -49 -19 -57
-5 -8 13 144 129 170 130 6 1 14 -13 18 -30z m1353 -11 c-3 -8 -6 -5 -6 6 -1
11 2 17 5 13 3 -3 4 -12 1 -19z m1526 -30 c17 -23 22 -50 28 -165 9 -162 12
-1653 3 -1653 -11 0 -95 59 -122 86 -29 28 -121 61 -247 89 -99 22 -306 78
-360 98 -122 45 -324 130 -364 154 -25 15 -59 34 -76 42 -16 7 -78 38 -137 67
-58 30 -113 54 -121 54 -8 0 -40 11 -72 25 -31 14 -79 30 -106 36 -27 6 -51
14 -54 19 -3 5 -19 55 -36 111 -35 119 -37 195 -4 213 11 6 22 14 25 17 3 3
59 34 125 68 177 93 411 219 485 261 36 20 106 59 155 85 50 27 92 52 95 56 3
3 43 27 90 53 47 25 92 50 100 56 8 5 49 28 90 50 41 22 100 54 130 71 30 17
102 56 160 86 87 44 112 53 149 51 34 -2 48 -9 64 -30z m-3163 -58 c0 -5 -5
-10 -11 -10 -5 0 -7 5 -4 10 3 6 8 10 11 10 2 0 4 -4 4 -10z m90 -20 c0 -5 -4
-10 -10 -10 -5 0 -10 5 -10 10 0 6 5 10 10 10 6 0 10 -4 10 -10z m-79 -17 c5
-85 2 -223 -4 -223 -5 0 -5 5 -2 10 3 6 -1 10 -9 10 -25 0 -36 33 -38 113 -2
51 2 80 11 91 18 21 41 20 42 -1z m1007 -34 c14 -10 39 -19 57 -19 38 0 96
-22 114 -44 7 -8 14 -45 17 -83 3 -37 7 -76 9 -86 2 -13 -1 -17 -10 -13 -8 3
-17 1 -20 -5 -4 -5 -11 -7 -16 -4 -5 3 -6 0 -3 -8 3 -8 -3 -23 -13 -32 -10
-10 -18 -22 -18 -27 0 -5 -6 -13 -14 -17 -14 -9 -24 -52 -23 -99 0 -16 -4 -22
-14 -18 -8 3 -14 0 -14 -6 0 -6 -11 -8 -31 -4 -25 5 -30 3 -26 -9 4 -9 1 -12
-8 -9 -7 3 -15 -2 -18 -13 -3 -13 -5 -12 -6 6 -1 24 -2 24 -15 6 -13 -18 -14
-18 -20 3 -4 12 -12 20 -17 17 -5 -4 -9 -1 -9 6 0 8 -6 6 -18 -4 -20 -18 -34
-14 -26 7 3 7 0 23 -5 37 -9 21 -10 19 -11 -21 -1 -83 -22 -120 -36 -62 -7 27
-36 55 -62 59 -11 1 -13 -8 -8 -35 3 -20 3 -31 0 -24 -8 16 -19 15 -38 -4 -15
-14 -16 -14 -16 4 0 31 -29 36 -36 7 -3 -14 -10 -25 -15 -25 -5 0 -6 7 -3 15
4 8 1 15 -5 15 -6 0 -11 10 -11 23 0 22 -1 22 -13 -3 -8 -15 -20 -24 -30 -22
-10 2 -17 -4 -17 -13 0 -9 -5 -13 -11 -10 -5 4 -18 0 -28 -9 -17 -16 -19 -15
-26 16 -6 28 -8 30 -14 13 -3 -11 -15 -22 -26 -23 -10 -2 -24 -11 -30 -19 -10
-13 -13 -13 -24 1 -7 9 -18 13 -24 9 -5 -3 -16 2 -24 13 -7 10 -23 19 -36 19
-16 0 -22 6 -24 25 0 14 -1 31 -2 39 -1 7 -7 11 -16 7 -10 -3 -17 3 -21 19 -6
24 -18 29 -58 25 -11 -1 -16 3 -11 9 3 6 -1 18 -9 27 -9 8 -16 22 -16 29 0 8
-6 12 -14 9 -22 -9 -30 16 -10 32 17 12 17 13 2 8 -12 -4 -18 -1 -18 9 0 9 -3
22 -6 30 -3 10 2 18 15 22 11 3 18 12 15 18 -2 7 2 21 10 32 9 11 16 14 16 8
0 -21 18 -15 46 17 19 20 40 31 71 36 24 3 57 17 73 30 34 29 110 32 180 8 30
-11 61 -14 93 -9 43 5 66 15 133 54 70 42 196 47 242 10z m370 -18 c16 -37 -1
-101 -28 -101 -28 0 -43 74 -26 127 6 18 10 20 25 12 9 -7 22 -23 29 -38z
m-605 -466 c-7 -21 -13 -19 -13 6 0 11 4 18 10 14 5 -3 7 -12 3 -20z m-1235
-793 c3 -17 -2 -22 -18 -22 -29 0 -60 18 -60 35 0 33 73 21 78 -13z m2494 -54
c15 -17 28 -36 28 -42 0 -15 -83 -12 -88 3 -2 6 -7 9 -12 6 -4 -2 -18 4 -30
15 -19 16 -21 22 -10 35 7 8 28 15 48 15 27 0 42 -7 64 -32z m-2386 -25 c4
-13 3 -28 -2 -33 -12 -12 -50 19 -58 46 -6 18 -3 20 24 16 22 -3 32 -11 36
-29z m2224 -43 c6 0 10 -8 10 -18 0 -10 7 -27 15 -39 8 -12 12 -24 8 -26 -15
-8 -199 -5 -235 4 -36 9 -38 12 -38 49 l0 39 115 -5 c64 -2 120 -4 125 -4z
m776 -90 l27 -11 -28 -29 c-25 -26 -36 -30 -81 -30 -29 0 -55 4 -58 9 -4 5 4
26 16 45 21 34 26 36 60 31 20 -3 49 -10 64 -15z m-448 -37 c52 -18 54 -26 5
-18 -60 10 -71 15 -77 31 -5 12 -2 14 11 9 10 -4 37 -14 61 -22z m-4178 -52
c0 -10 73 -107 124 -166 36 -41 47 -64 86 -175 23 -67 69 -244 70 -269 0 -27
-29 10 -65 84 -24 48 -55 90 -88 122 -89 83 -257 276 -257 295 0 5 -13 0 -29
-11 -16 -12 -32 -21 -35 -21 -34 0 129 144 167 148 15 1 27 -2 27 -7z m5010
-27 l25 -15 -25 7 c-14 3 -32 10 -40 15 -13 7 -13 8 0 8 8 0 26 -6 40 -15z
m-1867 -145 c3 -12 10 -18 16 -14 7 4 11 -3 11 -17 0 -15 3 -19 8 -10 6 9 15
5 33 -14 30 -32 133 -85 219 -112 36 -11 79 -25 95 -31 17 -6 47 -13 68 -16
l37 -6 0 -55 0 -56 -32 7 c-18 4 -39 12 -45 17 -7 6 -13 8 -13 5 0 -12 -242
101 -248 116 -2 4 -10 7 -18 7 -9 0 -12 5 -9 10 3 6 -4 10 -18 10 -24 0 -52
22 -41 32 3 3 -3 5 -13 5 -11 -1 -18 4 -17 14 1 10 -5 15 -15 13 -9 -2 -27 5
-41 15 l-24 19 19 23 c14 15 16 23 8 26 -7 2 -9 11 -6 19 8 20 20 17 26 -7z
m-58 -29 c3 -5 2 -10 -4 -10 -5 0 -13 5 -16 10 -3 6 -2 10 4 10 5 0 13 -4 16
-10z m-744 -160 c10 -6 19 -17 19 -25 0 -16 16 -21 22 -6 2 5 17 13 33 17 29
7 28 5 -15 -31 -71 -59 -243 -163 -298 -180 -19 -5 -25 -1 -36 27 -30 72 -29
73 13 93 22 9 45 14 53 10 7 -5 10 -5 6 0 -9 10 27 38 97 75 62 33 76 35 106
20z m3201 -574 c7 4 8 3 4 -4 -4 -6 12 -51 35 -99 23 -48 68 -168 100 -265 53
-160 59 -185 59 -261 0 -46 -5 -99 -12 -118 -12 -34 -12 -34 -19 -9 -4 14 -7
42 -8 62 -2 57 -62 211 -144 370 -83 159 -96 208 -77 290 19 85 20 86 36 55 9
-16 20 -25 26 -21z m-1122 -36 c0 -5 -4 -10 -10 -10 -5 0 -10 5 -10 10 0 6 5
10 10 10 6 0 10 -4 10 -10z m-2460 -54 c0 -3 -4 -8 -10 -11 -5 -3 -10 -1 -10
4 0 6 5 11 10 11 6 0 10 -2 10 -4z m2470 -6 c0 -5 -5 -10 -11 -10 -5 0 -7 5
-4 10 3 6 8 10 11 10 2 0 4 -4 4 -10z m1020 -29 c0 -6 -4 -13 -10 -16 -5 -3
-10 -16 -10 -27 0 -12 -7 -30 -16 -39 -9 -10 -18 -31 -20 -45 -3 -29 -22 -47
-41 -39 -7 2 -13 -2 -13 -9 0 -8 -6 -16 -14 -19 -9 -4 -13 0 -12 11 2 9 8 18
14 20 7 2 9 9 6 14 -5 7 -2 8 6 3 9 -5 11 -1 6 16 -3 13 -3 18 0 12 3 -7 13
-13 22 -13 14 0 14 2 3 9 -20 13 -8 61 26 99 27 31 53 42 53 23z m-230 -331
c-9 -21 -16 -28 -23 -21 -7 7 -4 19 7 36 23 34 32 25 16 -15z m-40 -79 c0 -4
-7 -8 -15 -8 -8 0 -15 6 -15 13 0 8 6 11 15 8 8 -4 15 -9 15 -13z"/>
<path d="M4007 3902 c-19 -20 -23 -37 -7 -27 10 6 33 45 27 45 -2 0 -11 -8
-20 -18z"/>
<path d="M3256 3373 c-8 -9 -6 -8 -211 -42 -98 -16 -352 -21 -405 -7 -49 13
-74 11 -64 -5 3 -5 0 -9 -5 -9 -18 0 -12 -17 14 -41 13 -13 25 -29 25 -35 0
-19 44 -53 90 -69 36 -13 68 -15 165 -9 169 9 198 11 215 17 8 3 31 10 50 16
51 17 90 35 90 42 0 4 16 26 35 49 22 27 35 52 35 71 0 27 -17 39 -34 22z"/>
<path d="M3606 3434 c-8 -22 -4 -25 11 -9 7 8 9 16 4 19 -5 3 -12 -1 -15 -10z"/>
<path d="M3415 1710 c3 -5 8 -10 11 -10 2 0 4 5 4 10 0 6 -5 10 -11 10 -5 0
-7 -4 -4 -10z"/>
<path d="M2620 1509 c0 -5 5 -7 10 -4 6 3 10 8 10 11 0 2 -4 4 -10 4 -5 0 -10
-5 -10 -11z"/>
<path d="M5238 913 c7 -3 16 -2 19 1 4 3 -2 6 -13 5 -11 0 -14 -3 -6 -6z"/>
<path d="M91 704 c0 -11 3 -14 6 -6 3 7 2 16 -1 19 -3 4 -6 -2 -5 -13z"/>
<path d="M3050 680 c-7 -16 -16 -30 -20 -30 -4 0 -13 -13 -20 -30 -9 -21 -19
-30 -36 -30 -13 0 -24 5 -24 10 0 6 -5 10 -11 10 -5 0 -7 -5 -3 -12 5 -8 -6
-9 -42 -4 -27 3 -50 11 -52 16 -2 6 -10 6 -22 0 -10 -5 -32 -7 -49 -4 -27 6
-31 4 -32 -17 -3 -55 3 -119 18 -194 15 -79 20 -282 7 -359 l-5 -36 455 0
c251 0 456 3 456 8 0 4 -9 83 -20 177 -17 151 -24 239 -34 448 -2 32 -8 63
-15 70 -8 8 -11 6 -11 -11 0 -12 -3 -23 -7 -23 -38 -7 -60 -11 -138 -28 -49
-11 -107 -22 -127 -26 -30 -4 -36 -9 -33 -25 2 -11 0 -20 -5 -20 -11 0 -9 41
3 58 7 8 5 12 -7 12 -14 0 -21 18 -17 43 1 5 -3 6 -9 2 -6 -3 -8 -11 -5 -16 3
-5 -1 -6 -9 -3 -9 3 -16 2 -16 -4 0 -5 7 -12 15 -16 9 -3 12 -12 8 -22 -4 -12
-3 -15 6 -10 9 6 12 1 9 -15 -2 -20 -8 -23 -33 -20 -38 4 -45 8 -45 29 0 19
-42 72 -57 72 -6 0 -16 7 -23 15 -19 23 -36 18 -50 -15z"/>
<path d="M2920 690 c0 -5 5 -10 10 -10 6 0 10 5 10 10 0 6 -4 10 -10 10 -5 0
-10 -4 -10 -10z"/>
<path d="M3184 651 c0 -11 6 -17 13 -14 6 3 9 11 6 19 -7 20 -19 17 -19 -5z"/>
<path d="M2930 650 c-13 -8 -12 -10 3 -10 9 0 17 5 17 10 0 12 -1 12 -20 0z"/>
<path d="M3190 604 c0 -8 5 -12 10 -9 6 3 10 10 10 16 0 5 -4 9 -10 9 -5 0
-10 -7 -10 -16z"/>
<path d="M572 440 c0 -14 2 -19 5 -12 2 6 2 18 0 25 -3 6 -5 1 -5 -13z"/>
<path d="M591 444 c0 -11 3 -14 6 -6 3 7 2 16 -1 19 -3 4 -6 -2 -5 -13z"/>
<path d="M611 434 c0 -11 3 -14 6 -6 3 7 2 16 -1 19 -3 4 -6 -2 -5 -13z"/>
</g>
</svg>
