<?xml version="1.0" standalone="no"?>
<!DOCTYPE svg PUBLIC "-//W3C//DTD SVG 20010904//EN"
 "http://www.w3.org/TR/2001/REC-SVG-20010904/DTD/svg10.dtd">
<svg version="1.0" xmlns="http://www.w3.org/2000/svg"
 width="1584.000000pt" height="396.000000pt" viewBox="0 0 1584.000000 396.000000"
 preserveAspectRatio="xMidYMid meet">

<g transform="translate(0.000000,396.000000) scale(0.100000,-0.100000)"
fill="#000000" stroke="none">
<path d="M10797 3501 c-180 -253 -330 -468 -334 -478 -3 -10 27 29 68 87 90
127 552 772 586 818 13 17 20 32 16 32 -4 0 -155 -207 -336 -459z"/>
<path d="M11115 3868 c-46 -64 -65 -100 -63 -117 3 -20 55 -53 336 -213 261
-149 337 -189 356 -184 28 7 226 281 226 313 0 30 -16 41 -250 172 l-215 121
-162 0 -162 0 -66 -92z m131 -80 c4 -7 3 -8 -4 -4 -7 4 -17 4 -23 0 -8 -4 -7
-9 2 -15 7 -4 10 -11 6 -15 -11 -12 -30 13 -24 30 7 19 33 21 43 4z m38 -17
c10 -15 -6 -42 -22 -39 -26 5 -26 28 0 28 18 0 20 2 8 10 -9 6 -10 10 -3 10 6
0 14 -4 17 -9z m49 -27 c13 -13 -13 -41 -37 -41 -24 0 -24 0 -9 23 15 23 33
30 46 18z m43 -26 c5 -7 3 -8 -6 -3 -9 5 -10 2 -5 -14 4 -15 2 -21 -9 -21 -8
0 -18 4 -21 10 -4 6 1 7 12 3 15 -6 16 -4 6 9 -12 14 -8 28 8 28 4 0 11 -5 15
-12z m44 -27 c-5 -11 -15 -23 -22 -27 -7 -5 -8 -2 -3 7 21 37 44 55 25 20z
m36 -22 c10 -17 -23 -46 -38 -31 -8 8 -8 15 2 27 15 18 26 19 36 4z m49 -29
c5 -8 12 -7 23 2 15 12 16 11 3 -4 -12 -16 -11 -18 5 -19 11 0 14 -3 7 -6 -7
-2 -13 -11 -13 -19 0 -12 -2 -12 -14 -2 -7 7 -11 19 -9 25 3 7 -2 16 -11 19
-22 9 -34 -5 -16 -16 13 -8 12 -10 -2 -10 -18 0 -24 20 -11 33 10 10 31 8 38
-3z"/>
<path d="M11305 3730 c-3 -5 -2 -10 4 -10 5 0 13 5 16 10 3 6 2 10 -4 10 -5 0
-13 -4 -16 -10z"/>
<path d="M11430 3654 c0 -8 5 -12 10 -9 6 3 10 10 10 16 0 5 -4 9 -10 9 -5 0
-10 -7 -10 -16z"/>
<path d="M11601 3956 c23 -21 279 -156 296 -156 17 0 36 17 69 62 79 108 96
98 -152 98 -120 0 -215 -2 -213 -4z"/>
<path d="M12030 3873 c-35 -51 -59 -96 -58 -108 3 -21 44 -48 235 -155 82 -45
119 -61 135 -56 23 6 216 268 224 304 6 25 -4 36 -67 71 l-56 31 -176 0 -176
0 -61 -87z m293 -34 c7 -12 3 -26 -17 -55 -14 -21 -26 -33 -26 -26 0 6 -7 12
-15 12 -8 0 -19 9 -24 19 -8 14 -6 25 10 45 23 30 55 32 72 5z"/>
<path d="M12260 3825 c-14 -26 -10 -37 16 -41 18 -3 48 41 39 56 -11 18 -41
10 -55 -15z"/>
<path d="M12540 3956 c0 -2 56 -36 125 -75 159 -91 169 -91 227 -8 25 34 48
68 52 74 5 10 -38 13 -198 13 -114 -1 -206 -2 -206 -4z"/>
<path d="M12946 3875 c-40 -59 -56 -90 -51 -104 7 -24 337 -211 371 -211 18 0
43 29 123 147 56 81 101 157 101 170 0 17 -13 30 -52 53 l-53 30 -191 0 -190
0 -58 -85z m324 32 c0 -2 -10 -12 -22 -23 l-23 -19 19 23 c18 21 26 27 26 19z
m-90 -187 c0 -5 -10 -10 -22 -9 -22 0 -22 1 -3 9 11 5 21 9 23 9 1 1 2 -3 2
-9z"/>
<path d="M13471 3956 c2 -2 59 -33 125 -70 154 -84 169 -85 219 -12 59 85 58
86 -161 86 -103 0 -185 -2 -183 -4z"/>
<path d="M14091 3956 c5 -4 785 -442 1259 -706 190 -106 376 -210 413 -232 67
-39 85 -43 74 -15 -3 7 -157 98 -344 202 -186 103 -566 315 -845 471 -312 175
-518 284 -535 284 -14 0 -24 -2 -22 -4z"/>
<path d="M14521 3956 c4 -4 300 -170 374 -210 22 -12 60 -34 85 -48 25 -14
116 -65 203 -113 86 -48 157 -91 157 -97 0 -5 4 -7 9 -4 4 3 34 -10 66 -29 31
-19 61 -35 66 -35 5 0 9 -4 9 -9 0 -5 11 -12 25 -15 14 -4 25 -11 25 -17 0 -6
5 -7 10 -4 6 3 10 1 10 -5 0 -6 5 -8 10 -5 6 3 10 2 10 -4 0 -5 31 -24 69 -42
39 -18 68 -36 65 -40 -2 -4 9 -10 25 -14 16 -3 35 -13 41 -21 7 -7 16 -12 20
-9 5 3 11 1 15 -5 21 -35 25 18 25 360 l0 370 -662 0 c-364 0 -659 -2 -657 -4z"/>
<path d="M13876 3886 c-40 -44 -62 -94 -50 -114 6 -9 89 -61 183 -115 125 -72
179 -97 195 -93 29 7 86 87 86 119 0 17 -10 33 -27 45 -64 44 -323 182 -343
182 -11 0 -31 -11 -44 -24z"/>
<path d="M13544 3842 c-24 -15 -204 -288 -204 -308 0 -11 8 -28 18 -36 37 -33
329 -188 353 -188 21 0 41 23 127 149 56 83 102 156 102 164 0 24 -40 52 -201
141 -154 85 -173 93 -195 78z m106 -317 c0 -8 -24 -48 -38 -64 -12 -12 -13
-11 -10 5 2 10 11 25 22 33 14 11 15 15 5 22 -11 7 -10 9 4 9 9 0 17 -2 17 -5z
m-60 -25 c0 -5 -2 -10 -4 -10 -3 0 -8 5 -11 10 -3 6 -1 10 4 10 6 0 11 -4 11
-10z"/>
<path d="M12622 3834 c-20 -9 -212 -290 -212 -312 0 -11 6 -24 13 -30 38 -32
333 -192 353 -192 26 0 32 6 158 192 56 83 76 121 72 135 -4 12 -69 55 -171
112 -167 94 -190 104 -213 95z m77 -240 c-13 -37 -4 -42 26 -14 21 20 25 21
25 6 0 -9 -5 -26 -10 -37 -14 -25 2 -25 25 1 10 11 22 20 27 20 5 0 -7 -14
-27 -31 -40 -35 -54 -32 -37 6 18 38 15 39 -20 10 -38 -32 -45 -23 -23 28 17
42 30 51 14 11z"/>
<path d="M10988 3678 c-8 -7 -51 -62 -93 -123 -43 -60 -87 -120 -97 -131 -12
-14 -18 -33 -16 -50 3 -27 37 -49 433 -277 237 -136 441 -250 453 -253 16 -5
30 -1 42 12 38 39 210 289 210 306 0 23 -10 30 -275 180 -126 71 -316 179
-421 239 -106 60 -198 109 -206 109 -8 0 -21 -6 -30 -12z m-22 -270 c5 -7 3
-8 -6 -3 -10 6 -12 4 -7 -9 4 -10 7 -20 7 -23 0 -3 8 5 19 18 l18 23 7 -22 c4
-12 2 -30 -4 -39 -10 -16 -10 -15 -5 5 6 21 -8 31 -19 13 -7 -10 -44 -3 -52
10 -3 5 3 6 13 2 15 -6 16 -4 6 9 -12 14 -8 28 8 28 4 0 11 -5 15 -12z m62
-58 c-7 -10 -14 -18 -15 -16 -6 6 9 36 18 36 5 0 4 -9 -3 -20z m46 5 c-5 -11
-2 -13 10 -9 20 8 21 -3 1 -23 -8 -8 -12 -19 -9 -25 4 -7 2 -8 -5 -4 -6 4 -9
16 -6 27 7 22 -5 25 -24 7 -11 -11 -12 -10 -6 2 20 38 51 58 39 25z"/>
<path d="M14328 3643 c-32 -38 -59 -94 -56 -115 2 -18 40 -44 173 -120 94 -53
182 -97 196 -97 26 -1 48 18 89 77 18 27 20 38 12 56 -12 27 -342 216 -377
216 -12 0 -29 -8 -37 -17z"/>
<path d="M12018 3628 c-16 -13 -177 -238 -198 -278 -6 -11 -9 -29 -6 -38 3
-10 83 -62 177 -116 144 -83 176 -97 195 -90 32 12 226 291 222 318 -2 15 -49
47 -173 119 -93 53 -177 97 -186 97 -8 0 -22 -6 -31 -12z m129 -273 c-6 -25
-14 -45 -18 -45 -5 0 -6 6 -3 14 7 17 -25 29 -52 20 -10 -4 -1 7 21 24 56 44
64 42 52 -13z"/>
<path d="M12115 3371 c-6 -11 9 -23 19 -14 9 9 7 23 -3 23 -6 0 -12 -4 -16 -9z"/>
<path d="M13992 3593 c-7 -3 -58 -73 -114 -155 -85 -127 -99 -154 -90 -172 11
-24 338 -216 369 -216 11 0 29 10 40 23 38 42 193 282 193 299 0 21 -27 39
-208 142 -134 76 -166 89 -190 79z m87 -306 c-2 -1 -12 -9 -22 -16 -15 -12
-17 -12 -11 3 3 9 13 16 22 16 8 0 13 -1 11 -3z"/>
<path d="M13037 3558 c-74 -100 -187 -274 -187 -288 0 -25 20 -39 186 -133
149 -84 163 -91 196 -88 22 1 218 285 218 316 0 14 -11 31 -27 43 -65 45 -322
182 -341 182 -12 0 -31 -14 -45 -32z m157 -213 c11 -8 15 -15 10 -15 -6 0 -15
5 -22 12 -9 9 -13 7 -18 -6 -4 -11 0 -23 12 -32 18 -14 17 -14 -5 -4 -33 17
-55 -5 -27 -26 11 -8 15 -14 9 -14 -6 0 -16 6 -22 14 -10 11 -7 22 11 50 26
41 26 41 52 21z"/>
<path d="M4143 3492 c-6 -4 -56 -236 -113 -517 -56 -280 -115 -565 -130 -632
-38 -158 -88 -303 -106 -303 -19 0 -18 -24 1 -40 12 -10 18 -10 31 1 48 40 90
195 209 777 l93 457 1 -146 c1 -157 14 -353 32 -487 9 -68 14 -82 28 -80 16 3
23 21 163 465 34 106 63 191 65 190 1 -2 -8 -111 -22 -243 -63 -614 1 -1000
171 -1020 51 -7 99 23 109 65 7 34 1 51 -21 51 -8 0 -14 -10 -14 -22 0 -36
-16 -51 -51 -50 -72 2 -110 65 -150 252 -34 155 -32 448 4 775 14 132 29 282
33 333 6 89 6 94 -12 90 -22 -4 -58 -103 -180 -495 -43 -139 -82 -246 -86
-239 -11 20 -28 383 -28 608 0 114 -4 209 -8 212 -4 2 -13 2 -19 -2z"/>
<path d="M1790 3398 c-12 -31 -62 -316 -99 -563 -54 -363 -67 -527 -52 -675
14 -134 25 -172 62 -210 67 -66 182 -29 311 102 87 87 101 108 88 128 -7 12
-29 -6 -97 -77 -63 -65 -104 -99 -143 -117 -67 -31 -89 -32 -124 -5 -99 78
-74 536 70 1283 13 72 22 136 20 143 -8 20 -25 15 -36 -9z"/>
<path d="M14798 3399 c-25 -14 -78 -94 -78 -118 0 -25 25 -42 199 -140 154
-87 172 -95 199 -87 26 8 82 92 82 121 0 29 -14 39 -210 148 -152 84 -168 90
-192 76z"/>
<path d="M12447 3373 c-8 -10 -56 -76 -106 -148 -86 -123 -101 -155 -83 -181
4 -6 82 -55 175 -109 129 -75 173 -96 192 -91 30 8 225 284 225 319 0 13 -8
31 -17 39 -37 33 -323 188 -346 188 -13 0 -31 -8 -40 -17z m157 -229 c23 -22
20 -30 -3 -10 -28 25 -45 11 -25 -19 18 -27 13 -55 -10 -55 -17 0 -46 27 -46
42 0 6 9 0 19 -13 16 -19 22 -21 32 -12 10 10 9 17 -5 32 -34 37 3 70 38 35z"/>
<path d="M13497 3326 c-7 -8 -58 -80 -112 -160 -94 -139 -97 -146 -83 -168 21
-31 333 -208 367 -208 23 0 40 19 129 149 56 83 102 158 102 169 0 10 -8 26
-17 34 -31 27 -337 198 -355 198 -9 0 -23 -6 -31 -14z m148 -243 c16 -16 16
-18 -3 -33 -11 -9 -22 -25 -25 -36 -4 -17 -5 -17 -6 3 -1 29 -18 38 -39 21
-15 -12 -16 -11 -1 12 8 14 19 31 23 38 10 17 31 15 51 -5z"/>
<path d="M13600 3075 c-10 -12 -9 -16 4 -21 9 -3 23 -3 32 0 13 5 14 9 4 21
-7 8 -16 15 -20 15 -4 0 -13 -7 -20 -15z"/>
<path d="M14423 3318 c-11 -13 -59 -82 -107 -154 -63 -95 -86 -137 -82 -151 9
-29 360 -227 389 -219 15 3 54 53 118 148 119 176 112 164 100 187 -13 23
-348 211 -377 211 -11 0 -30 -10 -41 -22z m90 -298 c-23 -10 -38 -43 -27 -61
4 -8 3 -9 -4 -5 -7 4 -12 13 -12 19 0 22 30 57 48 56 13 0 12 -2 -5 -9z m17
-60 c0 -5 -5 -10 -11 -10 -5 0 -7 5 -4 10 3 6 8 10 11 10 2 0 4 -4 4 -10z"/>
<path d="M10697 3278 c-130 -177 -198 -280 -195 -295 2 -10 67 -56 158 -111
168 -101 186 -110 212 -105 10 3 65 72 124 154 81 115 105 156 100 173 -4 15
-33 37 -93 71 -48 26 -124 70 -169 97 -44 26 -88 48 -97 48 -9 0 -27 -15 -40
-32z m-3 -242 c-3 -9 3 -17 15 -21 25 -7 27 -18 7 -34 -12 -10 -14 -8 -9 11 4
21 3 22 -10 6 -8 -10 -18 -18 -22 -18 -4 0 -2 7 5 15 7 9 10 19 6 23 -4 4 -14
-2 -22 -12 -19 -27 -18 -6 2 22 17 24 36 30 28 8z"/>
<path d="M15216 3104 c-39 -54 -45 -93 -18 -116 9 -9 92 -57 184 -108 192
-106 199 -107 247 -32 35 55 39 82 13 105 -32 29 -327 189 -359 194 -28 5 -34
1 -67 -43z"/>
<path d="M12897 3118 c-32 -29 -207 -287 -207 -304 0 -18 44 -49 207 -143 104
-60 150 -82 170 -79 24 2 44 27 130 153 57 83 103 157 103 166 0 9 -8 23 -17
31 -22 19 -316 184 -342 193 -12 4 -28 -3 -44 -17z m131 -224 c26 -18 28 -41
5 -66 -19 -22 -56 -24 -72 -4 -10 11 -7 22 11 50 26 41 26 41 56 20z"/>
<path d="M12982 2864 l-22 -34 27 -6 c43 -11 73 45 35 65 -14 7 -22 3 -40 -25z"/>
<path d="M11959 3113 c-49 -57 -199 -283 -199 -300 0 -28 14 -38 193 -143 117
-69 163 -91 180 -86 33 9 231 300 223 329 -4 16 -53 49 -168 117 -90 52 -174
96 -188 98 -16 2 -31 -3 -41 -15z m155 -228 c23 -17 23 -18 -29 -40 -38 -15
-39 -17 -21 -31 29 -21 15 -24 -18 -3 l-30 18 49 21 c45 19 47 21 29 35 -10 8
-14 14 -9 14 6 0 19 -6 29 -14z"/>
<path d="M14878 3073 c-30 -34 -198 -295 -198 -307 0 -25 29 -46 194 -140 131
-75 177 -96 200 -94 28 3 42 19 129 148 100 149 113 183 80 212 -37 32 -344
198 -366 198 -13 0 -31 -8 -39 -17z m132 -328 c0 -2 -10 -9 -22 -15 -22 -11
-22 -10 -4 4 21 17 26 19 26 11z"/>
<path d="M13859 2948 c-113 -166 -127 -192 -109 -213 23 -28 345 -205 373
-205 24 0 40 19 133 159 90 135 104 162 95 179 -14 26 -343 212 -375 212 -21
0 -41 -22 -117 -132z m261 -135 c3 -3 -3 -3 -12 -1 -10 2 -29 -10 -44 -27
l-26 -30 21 36 c11 20 17 39 13 44 -7 8 38 -13 48 -22z"/>
<path d="M11142 3043 c-26 -24 -212 -292 -212 -307 0 -6 4 -16 8 -22 14 -22
331 -204 355 -204 30 0 44 16 157 178 70 101 91 138 86 155 -4 16 -51 49 -174
120 -93 53 -176 97 -184 97 -9 0 -25 -8 -36 -17z m-36 -265 c4 -6 3 -8 -4 -4
-6 3 -14 1 -18 -5 -3 -6 0 -15 7 -20 11 -7 10 -9 -3 -9 -21 0 -25 36 -5 43 6
3 13 6 14 6 1 1 5 -4 9 -11z m48 -27 c3 -4 -1 -17 -9 -27 -10 -15 -16 -16 -26
-7 -6 6 -9 19 -6 27 7 17 32 22 41 7z m46 -36 c0 -8 -5 -17 -12 -21 -8 -5 -9
-2 -5 9 8 20 -4 22 -22 5 -11 -11 -11 -9 -2 9 12 23 41 22 41 -2z m22 -25 c-9
-16 -18 -25 -20 -20 -4 12 17 50 28 50 5 0 1 -13 -8 -30z m47 -3 c-2 -1 -12
-9 -22 -16 -15 -12 -17 -12 -11 3 3 9 13 16 22 16 8 0 13 -1 11 -3z m31 -39
c0 -21 0 -21 22 -2 l21 19 -18 -28 c-12 -19 -20 -24 -25 -16 -4 6 -12 9 -18 5
-14 -8 -25 11 -18 29 9 23 36 18 36 -7z"/>
<path d="M11125 2739 c-11 -17 1 -21 15 -4 8 9 8 15 2 15 -6 0 -14 -5 -17 -11z"/>
<path d="M11270 2650 c0 -5 5 -10 10 -10 6 0 10 5 10 10 0 6 -4 10 -10 10 -5
0 -10 -4 -10 -10z"/>
<path d="M15715 2889 c-31 -15 -77 -94 -73 -125 2 -23 19 -37 93 -81 50 -29
93 -53 98 -53 4 0 7 49 7 109 l0 109 -34 20 c-46 27 -68 32 -91 21z"/>
<path d="M3172 2870 c-42 -26 -71 -90 -72 -157 0 -59 11 -93 47 -145 22 -33
24 -41 14 -71 -15 -46 -67 -123 -88 -131 -31 -12 -45 19 -55 120 -13 150 -37
155 -82 18 -42 -131 -71 -184 -100 -184 -18 0 -25 7 -29 26 -15 79 48 314 98
368 17 18 34 26 58 26 39 0 60 -19 60 -55 0 -31 23 -53 39 -37 17 17 -1 82
-32 114 -22 22 -38 28 -71 28 -63 0 -116 -58 -153 -169 -15 -46 -35 -95 -45
-110 -10 -14 -34 -52 -55 -84 -50 -78 -150 -174 -196 -188 -47 -14 -91 4 -101
41 -24 86 0 225 60 355 50 108 94 157 135 153 27 -3 31 -7 34 -36 6 -57 51
-52 52 5 0 62 -52 103 -106 83 -64 -24 -135 -118 -179 -235 -15 -39 -32 -77
-39 -85 -7 -8 -19 -30 -26 -48 -17 -45 -56 -75 -80 -62 -31 16 -43 75 -37 172
6 89 -2 114 -27 87 -7 -8 -20 -59 -29 -114 -26 -168 -73 -244 -120 -196 -18
17 -21 33 -21 93 -1 75 20 195 35 204 18 11 9 44 -12 44 -28 0 -48 -52 -59
-154 -18 -154 14 -246 86 -246 36 0 79 41 97 93 l10 29 24 -31 c33 -42 82 -43
124 -2 l29 29 0 -66 c0 -70 22 -135 54 -161 58 -48 195 30 300 169 l43 59 6
-48 c11 -93 43 -124 98 -95 31 15 66 71 95 148 10 27 19 45 20 40 1 -5 5 -30
9 -55 12 -91 76 -117 138 -55 19 19 46 57 60 85 l25 51 31 -42 31 -43 -49 -45
c-67 -62 -93 -104 -95 -152 -2 -76 76 -112 145 -65 18 12 44 38 57 57 20 29
23 44 19 90 -2 30 -7 63 -11 72 -9 21 45 51 130 73 66 17 69 19 60 40 -7 20
-55 13 -142 -21 -33 -13 -65 -24 -70 -24 -15 0 -132 154 -154 202 -35 76 -18
157 41 201 25 18 28 18 57 3 40 -21 52 -64 40 -141 -9 -62 1 -90 24 -67 18 18
23 156 8 193 -28 66 -95 87 -158 49z m137 -580 c2 -67 -64 -139 -114 -126 -55
14 -19 110 65 171 32 23 35 24 42 8 3 -10 7 -34 7 -53z"/>
<path d="M6398 2875 c-36 -20 -78 -108 -78 -164 0 -47 28 -121 57 -154 15 -16
15 -20 0 -52 -36 -75 -118 -145 -171 -145 -53 0 -76 27 -90 103 -6 33 -5 37
14 37 26 0 77 25 108 54 57 51 70 133 27 162 -31 20 -63 13 -105 -22 -31 -27
-80 -111 -80 -138 0 -29 -53 -128 -77 -143 -23 -15 -26 -15 -44 3 -26 26 -40
119 -29 186 5 34 4 57 -2 66 -17 20 -36 -4 -43 -56 -12 -93 -27 -158 -47 -205
-34 -79 -79 -86 -100 -16 -14 48 2 200 27 253 18 36 14 56 -10 56 -21 0 -43
-49 -55 -126 -7 -40 -24 -93 -43 -129 -32 -60 -142 -181 -186 -204 -23 -13
-23 -13 -17 36 3 26 15 124 27 217 17 137 18 170 8 177 -20 12 -25 5 -53 -85
-43 -140 -116 -223 -161 -186 -46 38 62 276 150 330 l36 22 25 -23 c31 -29 54
-14 36 25 -37 82 -165 10 -241 -134 -19 -36 -37 -67 -41 -70 -3 -3 -18 -42
-33 -87 -14 -45 -38 -100 -53 -122 -25 -39 -58 -60 -72 -46 -13 13 -4 100 22
212 32 137 34 188 7 203 -27 14 -26 14 -67 -22 l-36 -32 7 41 c5 34 3 45 -14
62 -27 27 -46 27 -65 -1 -18 -25 -21 -100 -6 -128 8 -15 1 -39 -35 -114 -94
-199 -140 -207 -152 -26 -10 147 -34 149 -83 7 -45 -130 -69 -172 -100 -172
-22 0 -25 5 -28 45 -7 99 46 285 98 340 19 20 38 30 57 30 41 0 55 -13 62 -56
8 -48 34 -54 39 -9 10 84 -79 141 -157 101 -72 -38 -141 -226 -141 -386 0
-171 106 -168 179 5 l29 68 11 -54 c14 -64 34 -89 72 -89 49 0 94 52 151 171
28 60 57 109 63 109 6 0 30 16 53 36 23 19 42 31 42 25 0 -6 -13 -67 -30 -136
-44 -182 -38 -268 19 -282 39 -10 71 16 113 92 21 39 38 64 38 58 0 -22 39
-53 66 -53 36 0 88 33 114 73 l21 32 -5 -35 c-3 -19 -8 -70 -12 -113 -5 -62
-12 -83 -28 -99 -20 -18 -20 -20 -4 -32 16 -11 16 -24 7 -142 -6 -71 -9 -179
-7 -241 l3 -111 -35 -5 c-19 -2 -47 0 -63 6 -17 6 -44 5 -75 -2 -26 -5 -184
-15 -352 -21 -168 -6 -456 -20 -640 -31 -184 -11 -461 -24 -615 -30 -154 -5
-325 -16 -380 -24 -55 -7 -155 -19 -222 -26 -114 -12 -154 -21 -143 -33 3 -3
62 -1 130 4 69 5 225 10 346 10 122 0 336 4 475 10 140 5 371 14 514 20 280
11 937 25 1100 24 55 -1 165 -1 245 -2 172 0 111 1 525 -13 187 -6 372 -12
410 -13 l70 -1 3 32 c2 24 -3 39 -22 58 -26 26 -34 28 -186 31 -41 1 -124 5
-185 8 -60 4 -121 7 -135 6 -14 -1 -36 -1 -50 0 -78 4 -562 -1 -599 -6 -39 -6
-43 -5 -37 12 21 69 58 243 68 319 13 103 7 137 -27 169 l-25 23 38 26 c47 33
112 100 146 151 22 33 27 36 32 20 18 -56 28 -76 45 -84 49 -27 106 3 133 70
l16 41 26 -30 c37 -44 81 -43 125 3 l32 34 21 -41 c58 -116 182 -93 291 52
l39 53 33 -38 c31 -37 42 -64 25 -64 -13 0 -92 -80 -113 -114 -46 -76 -4 -163
73 -153 41 6 83 34 110 75 20 30 24 114 8 156 -9 24 -6 28 30 46 22 11 65 27
97 35 65 17 76 24 64 44 -7 11 -18 11 -62 1 -30 -7 -77 -23 -106 -36 l-52 -22
-71 93 c-101 132 -117 183 -81 262 38 82 103 91 138 18 14 -30 15 -43 5 -96
-6 -34 -9 -66 -6 -70 5 -9 34 -13 34 -5 0 2 5 27 10 57 28 146 -58 250 -162
194z m-1438 -192 c-11 -17 -11 -17 -6 0 3 10 6 24 7 30 0 9 2 9 5 0 3 -7 0
-20 -6 -30z m1288 -29 c2 -12 -8 -35 -22 -51 -25 -30 -93 -69 -103 -60 -8 9
27 70 60 105 35 36 60 38 65 6z m282 -363 c0 -80 -68 -149 -119 -121 -42 22
-19 84 55 149 54 47 64 43 64 -28z m-1054 -152 c25 -28 22 -83 -12 -252 -38
-192 -45 -195 -39 -17 7 187 15 290 25 290 4 0 15 -9 26 -21z"/>
<path d="M13327 2848 c-79 -107 -187 -274 -187 -289 0 -24 36 -50 208 -148
102 -59 151 -81 170 -79 22 2 45 29 129 152 57 82 103 158 103 167 0 10 -15
29 -32 42 -61 44 -324 187 -346 187 -12 0 -31 -14 -45 -32z m159 -224 c18 -14
18 -15 -5 -4 -30 15 -48 -7 -23 -28 15 -12 15 -12 -2 -4 -15 8 -24 5 -39 -12
-21 -24 -13 -5 15 37 22 31 27 32 54 11z"/>
<path d="M12372 2818 c-102 -141 -172 -248 -172 -266 0 -26 14 -37 194 -141
119 -69 164 -91 182 -87 15 4 55 52 121 148 54 78 101 151 105 161 5 12 1 25
-15 40 -35 36 -324 197 -351 197 -19 0 -35 -13 -64 -52z m176 -204 l27 6 -27
-15 c-19 -11 -28 -24 -29 -43 -2 -25 -2 -25 -6 -4 -4 20 -9 23 -31 18 l-27 -6
28 15 c18 11 27 24 28 43 2 25 2 25 6 4 4 -20 9 -23 31 -18z"/>
<path d="M14412 2823 c-19 -7 -212 -299 -212 -320 0 -10 4 -23 8 -30 8 -13
335 -201 354 -204 39 -5 53 9 148 152 76 113 100 157 98 177 -3 23 -26 39
-173 123 -175 99 -201 111 -223 102z m94 -315 c-9 -12 -16 -17 -16 -11 0 7 5
15 10 18 6 3 11 21 11 38 2 30 2 30 6 5 2 -15 -3 -38 -11 -50z"/>
<path d="M15348 2818 c-27 -22 -198 -294 -198 -316 0 -26 18 -39 212 -146 100
-56 165 -86 180 -84 34 5 218 281 215 323 -2 28 -15 37 -182 132 -99 57 -187
103 -196 103 -8 0 -22 -6 -31 -12z"/>
<path d="M11584 2792 c-19 -13 -214 -299 -214 -314 0 -22 19 -35 192 -137 100
-59 166 -91 180 -89 16 2 50 42 115 133 50 72 100 144 109 162 17 31 17 33 0
52 -28 31 -323 201 -348 201 -13 0 -28 -4 -34 -8z m-25 -289 c5 -10 12 -17 15
-15 17 7 26 0 26 -20 1 -22 1 -22 15 -4 8 11 18 17 22 13 3 -4 -1 -15 -10 -25
-10 -10 -16 -21 -15 -23 2 -2 -2 2 -9 10 -7 8 -23 11 -38 9 -25 -5 -34 5 -15
17 6 3 10 11 10 17 0 6 -6 6 -15 -2 -19 -16 -41 1 -32 24 8 21 34 20 46 -1z
m89 -73 c-7 -10 -14 -18 -15 -16 -6 6 9 36 18 36 5 0 4 -9 -3 -20z m49 -9 c3
-12 11 -17 23 -14 25 7 32 -10 14 -33 -14 -18 -15 -18 -8 6 l7 25 -22 -19
c-17 -16 -21 -17 -16 -4 5 13 2 15 -13 11 -25 -6 -38 13 -22 32 17 20 31 19
37 -4z"/>
<path d="M11525 2500 c-3 -5 -2 -10 4 -10 5 0 13 5 16 10 3 6 2 10 -4 10 -5 0
-13 -4 -16 -10z"/>
<path d="M11570 2470 c0 -5 5 -10 10 -10 6 0 10 5 10 10 0 6 -4 10 -10 10 -5
0 -10 -4 -10 -10z"/>
<path d="M11666 2414 c-4 -10 -1 -14 6 -12 15 5 23 28 10 28 -5 0 -13 -7 -16
-16z"/>
<path d="M12852 2603 c-16 -14 -175 -239 -206 -291 -18 -29 11 -53 172 -145
186 -105 190 -107 214 -98 23 8 218 291 218 317 0 11 -8 28 -17 36 -26 22
-336 198 -349 198 -7 0 -21 -8 -32 -17z m148 -238 c6 -8 10 -20 7 -27 -4 -9
-6 -7 -6 3 -2 28 -34 33 -54 8 -23 -29 -18 -54 11 -53 12 0 22 -3 22 -8 0 -12
-34 -10 -48 4 -18 18 -15 41 8 66 24 26 43 28 60 7z"/>
<path d="M13788 2603 c-37 -44 -198 -291 -198 -305 0 -8 8 -22 18 -31 36 -32
338 -199 360 -199 30 0 31 1 141 164 71 104 92 143 89 164 -3 23 -25 39 -178
125 -96 55 -184 99 -196 99 -11 0 -28 -8 -36 -17z m102 -255 c-26 -28 -22 -52
9 -56 18 -3 22 0 18 12 -7 17 8 23 17 7 8 -13 -20 -33 -40 -29 -30 6 -39 33
-21 62 10 14 22 26 28 26 5 0 0 -10 -11 -22z m55 12 c3 -6 -1 -7 -9 -4 -18 7
-21 14 -7 14 6 0 13 -4 16 -10z"/>
<path d="M14874 2560 c-27 -10 -214 -293 -214 -324 0 -13 6 -28 13 -34 28 -24
353 -202 368 -202 23 0 47 29 144 177 64 98 86 139 83 159 -3 23 -25 40 -168
121 -192 110 -198 113 -226 103z m81 -270 c-9 -16 -18 -30 -21 -30 -2 0 2 14
11 30 9 17 18 30 21 30 2 0 -2 -13 -11 -30z m56 -32 c-23 -38 -52 -47 -71 -21
-12 15 -12 16 0 6 23 -21 45 -15 63 17 10 17 21 30 24 30 3 0 -4 -15 -16 -32z"/>
<path d="M15800 2543 c-39 -49 -190 -286 -190 -298 0 -23 27 -45 122 -99 53
-31 99 -56 102 -56 4 0 6 108 6 240 0 140 -4 240 -9 240 -5 0 -19 -12 -31 -27z"/>
<path d="M12038 2542 c-17 -7 -182 -235 -214 -295 -21 -39 -7 -57 83 -109 43
-24 145 -84 226 -133 127 -75 152 -87 173 -79 26 10 224 296 224 323 0 27 -11
35 -175 131 -88 51 -189 110 -224 131 -69 42 -67 41 -93 31z m-54 -301 c3 -5
-2 -8 -12 -7 -9 0 -16 -5 -14 -11 1 -7 -2 -13 -8 -13 -11 0 -14 23 -3 33 9 10
31 9 37 -2z m41 -37 c0 -10 -8 -20 -17 -22 -18 -3 -26 27 -11 42 12 11 28 0
28 -20z m58 -18 c19 -15 22 -32 7 -41 -6 -3 -7 1 -4 9 7 19 -7 21 -26 4 -12
-11 -12 -10 -1 5 8 9 11 21 7 25 -4 4 -14 -2 -22 -12 -15 -21 -18 -18 -8 8 7
19 23 20 47 2z m37 -47 c-7 -11 -14 -18 -17 -15 -3 3 0 12 7 21 18 21 23 19
10 -6z m54 -24 c-4 -10 0 -15 12 -15 16 0 17 -2 4 -10 -9 -6 -10 -10 -3 -10 7
0 17 8 22 18 9 15 10 15 11 1 0 -9 -6 -22 -14 -28 -11 -9 -17 -8 -28 8 -8 12
-18 18 -21 14 -4 -3 -7 -2 -7 3 0 6 5 15 12 22 9 9 8 12 -5 12 -9 0 -17 -5
-17 -12 0 -6 -2 -9 -5 -6 -3 3 -3 12 1 21 5 13 10 14 25 7 10 -6 16 -17 13
-25z m86 -35 c13 -8 12 -12 -4 -27 -14 -12 -16 -13 -8 -2 15 20 4 33 -15 17
-11 -8 -12 -7 -7 6 7 18 13 20 34 6z m53 -47 c-17 -25 -28 -29 -38 -13 -12 19
4 40 29 38 22 -2 23 -3 9 -25z"/>
<path d="M12006 2211 c-4 -7 -5 -15 -2 -18 9 -9 19 4 14 18 -4 11 -6 11 -12 0z"/>
<path d="M12280 2034 c0 -8 5 -12 10 -9 6 3 10 10 10 16 0 5 -4 9 -10 9 -5 0
-10 -7 -10 -16z"/>
<path d="M14257 2359 c-10 -6 -63 -78 -119 -161 -87 -131 -99 -155 -92 -176
13 -36 359 -234 392 -226 16 5 55 54 121 153 54 80 101 156 105 167 4 14 0 29
-11 42 -19 22 -349 212 -367 212 -6 0 -19 -5 -29 -11z m97 -263 c-4 -19 -1
-26 16 -31 12 -4 28 -1 37 7 13 10 13 6 -3 -20 -23 -40 -55 -71 -36 -35 16 29
15 30 -9 43 -17 9 -23 8 -35 -7 -22 -29 -16 -6 9 32 26 41 29 43 21 11z"/>
<path d="M13302 2343 c-22 -20 -195 -269 -205 -295 -3 -10 1 -26 11 -37 23
-27 339 -211 363 -211 11 0 28 11 40 23 35 42 199 290 199 303 0 7 -7 19 -15
28 -20 19 -347 206 -362 206 -6 0 -20 -8 -31 -17z m103 -255 l-7 -41 38 22 39
23 -30 -27 c-66 -58 -73 -55 -54 21 14 56 23 57 14 2z"/>
<path d="M15254 2198 c-126 -193 -134 -207 -134 -226 0 -27 16 -38 204 -146
163 -93 192 -103 217 -77 4 3 50 73 104 155 74 114 95 154 91 172 -8 29 -345
224 -388 224 -24 0 -36 -13 -94 -102z"/>
<path d="M12590 2217 c-12 -7 -67 -77 -122 -157 -77 -113 -98 -151 -96 -174 3
-26 36 -48 423 -279 758 -451 1367 -807 1379 -807 7 0 76 26 152 59 76 32 189
77 249 101 61 23 114 46 118 50 4 4 -133 90 -305 191 -543 319 -617 362 -883
519 -290 171 -851 493 -876 502 -9 4 -26 1 -39 -5z"/>
<path d="M13762 2092 c-20 -13 -212 -305 -212 -323 0 -9 8 -23 18 -31 33 -30
343 -208 361 -208 23 0 30 8 139 170 59 87 92 145 92 162 0 23 -14 35 -117 96
-152 90 -247 142 -259 142 -5 0 -15 -4 -22 -8z m142 -261 c12 -13 14 -21 6
-26 -6 -4 -15 -18 -20 -31 -10 -26 -36 -31 -62 -10 -16 12 -15 15 8 49 28 42
43 46 68 18z"/>
<path d="M13857 1826 c-5 -13 12 -26 34 -26 15 0 10 27 -7 34 -21 8 -21 8 -27
-8z"/>
<path d="M13835 1789 c-8 -12 14 -31 30 -26 6 2 10 10 10 18 0 17 -31 24 -40
8z"/>
<path d="M14703 2078 c-39 -45 -193 -289 -193 -308 0 -28 15 -39 200 -145 145
-83 175 -97 195 -89 14 5 58 62 113 145 115 174 115 175 102 198 -11 22 -353
221 -379 221 -10 0 -27 -10 -38 -22z m124 -307 c16 13 17 13 4 -3 -17 -22 -35
-23 -52 -1 -13 15 -12 15 8 3 18 -12 24 -12 40 1z"/>
<path d="M15789 2028 c-15 -12 -36 -44 -153 -226 -49 -77 -56 -110 -28 -134
13 -11 135 -85 225 -135 4 -2 7 111 7 251 0 240 -1 256 -18 256 -10 0 -25 -6
-33 -12z"/>
<path d="M11971 1893 c-29 -28 -233 -321 -215 -311 5 4 54 72 109 152 104 152
130 175 181 162 23 -6 210 -116 1224 -721 140 -84 390 -232 555 -330 357 -212
344 -204 345 -235 0 -34 13 -52 33 -45 26 11 25 27 -5 90 -16 33 -26 49 -22
36 5 -19 3 -23 -9 -18 -20 7 -573 334 -1352 797 -767 457 -755 450 -787 450
-17 0 -40 -11 -57 -27z"/>
<path d="M14208 1813 c-39 -45 -198 -294 -198 -310 0 -10 4 -23 8 -29 11 -17
352 -214 371 -214 9 0 21 4 27 8 14 9 214 310 214 322 0 22 -49 57 -201 144
-91 53 -175 96 -186 96 -11 0 -27 -8 -35 -17z m131 -313 c4 0 14 11 21 25 7
14 15 23 18 21 2 -3 -6 -21 -18 -41 -26 -42 -37 -36 -42 20 l-3 40 -22 -35
c-13 -19 -23 -30 -23 -25 0 6 12 28 28 50 l27 40 3 -47 c2 -27 7 -48 11 -48z"/>
<path d="M15150 1789 c-16 -23 -64 -95 -106 -160 -56 -88 -74 -124 -69 -139 7
-24 25 -35 223 -149 186 -108 174 -111 300 86 50 80 92 155 92 168 0 29 -12
38 -207 148 -84 48 -164 87 -178 87 -18 0 -33 -12 -55 -41z m132 -221 c-15
-15 -15 -26 1 -30 8 -2 10 -14 6 -38 l-6 -35 -2 33 c-1 37 -6 39 -34 15 -15
-13 -18 -14 -12 -3 17 31 47 70 53 70 3 0 1 -5 -6 -12z"/>
<path d="M14668 1543 c-33 -38 -198 -301 -198 -315 0 -22 22 -39 162 -121
l126 -75 104 40 104 41 62 95 c61 93 69 115 54 139 -14 22 -350 213 -374 213
-14 0 -32 -8 -40 -17z m109 -263 c-3 -22 -3 -40 0 -40 3 0 18 9 35 21 38 28
44 20 17 -25 -22 -38 -39 -44 -19 -7 11 21 -3 31 -15 11 -3 -5 -13 -10 -22
-10 -12 0 -14 7 -9 33 l6 32 -26 -30 c-27 -32 -23 -18 8 28 26 37 32 34 25
-13z"/>
<path d="M15571 1450 c-74 -114 -85 -137 -63 -132 8 1 11 -2 7 -8 -3 -6 -11
-8 -16 -5 -5 4 -12 0 -15 -9 -3 -8 -12 -12 -20 -9 -8 3 -14 0 -14 -7 0 -6 -5
-8 -12 -4 -8 5 -7 0 2 -11 14 -17 13 -18 -2 -12 -10 3 -18 2 -18 -3 0 -6 -8
-10 -17 -11 -13 0 -11 -3 6 -10 13 -5 21 -12 18 -15 -3 -4 -25 1 -47 10 -23 9
-39 12 -35 6 3 -5 0 -10 -7 -10 -15 -1 32 -29 47 -29 6 0 -1 6 -15 14 -34 20
-15 19 39 -2 34 -13 40 -18 25 -23 -16 -6 -16 -7 4 -12 12 -4 20 -2 16 3 -7
13 1 11 43 -6 57 -24 63 -17 8 9 -58 28 -55 34 5 10 23 -9 43 -14 46 -11 3 3
-4 8 -15 12 -12 3 -21 10 -21 15 0 5 7 7 15 4 13 -5 20 6 16 28 0 4 6 5 15 1
11 -4 12 -8 4 -13 -8 -5 -7 -9 5 -14 23 -8 27 -8 20 4 -3 6 1 10 9 10 8 0 18
-5 22 -12 4 -7 3 -8 -4 -4 -7 4 -12 3 -12 -3 0 -5 5 -11 12 -13 23 -8 -4 -30
-28 -24 -34 9 -30 0 6 -13 23 -7 29 -7 24 1 -5 7 0 9 14 6 12 -4 20 -2 16 3
-3 5 2 9 10 9 10 0 13 -6 10 -17 -5 -14 -4 -15 4 -4 8 10 14 11 28 1 16 -10
16 -11 2 -6 -10 3 -18 1 -18 -5 0 -5 -11 -7 -24 -3 -16 4 -25 1 -29 -10 -4 -9
-2 -16 3 -16 6 0 10 4 10 10 0 5 7 7 16 3 11 -4 12 -8 4 -13 -8 -5 -7 -9 4
-13 9 -4 16 -2 16 4 0 6 7 8 15 5 8 -3 22 -9 30 -12 11 -4 13 -2 10 9 -8 18
17 29 36 15 11 -8 10 -9 -4 -4 -10 3 -16 2 -13 -3 10 -15 -22 -33 -46 -27 -13
3 -17 3 -11 0 10 -4 9 -9 -2 -20 -11 -11 -19 -12 -32 -5 -17 10 -16 10 2 11
13 0 4 8 -24 20 -55 25 -67 25 -21 0 42 -23 33 -26 -17 -5 -43 18 -46 18 -37
4 5 -9 -1 -10 -22 -5 l-29 6 25 -14 c14 -8 27 -10 28 -5 2 5 8 9 13 9 6 0 7
-4 4 -10 -3 -5 0 -7 8 -4 10 3 14 -2 13 -17 0 -12 6 -24 14 -26 13 -4 13 -3 0
6 -13 9 -12 11 5 11 17 0 17 2 5 10 -23 15 0 12 49 -7 34 -13 40 -18 25 -23
-16 -6 -16 -7 4 -12 12 -4 20 -2 16 3 -7 12 17 11 36 -1 12 -8 12 -10 -5 -10
-14 -1 -10 -5 15 -17 l35 -15 -29 -13 -29 -12 32 -11 c17 -6 29 -7 26 -2 -3 5
3 11 12 13 17 4 17 5 0 6 -10 0 -15 6 -12 11 4 6 10 8 14 6 4 -3 8 24 8 60 1
35 -3 64 -8 64 -5 0 -9 5 -9 11 0 5 5 7 10 4 6 -3 10 -2 10 4 0 5 -6 12 -12
14 -10 4 -10 6 0 6 6 1 12 14 12 30 0 16 -6 32 -12 34 -10 4 -10 6 0 6 9 1 12
36 12 140 l0 139 -71 41 c-109 63 -114 61 -198 -69z m59 -100 c0 -5 -2 -10 -4
-10 -3 0 -8 5 -11 10 -3 6 -1 10 4 10 6 0 11 -4 11 -10z m-60 -96 c0 -2 -7 -4
-15 -4 -8 0 -15 4 -15 10 0 5 7 7 15 4 8 -4 15 -8 15 -10z m125 -14 c-3 -5 7
-16 22 -24 33 -18 25 -21 -12 -4 -25 11 -30 19 -18 31 10 10 15 8 8 -3z m-215
-20 c8 -5 11 -10 5 -10 -5 0 -17 5 -25 10 -8 5 -10 10 -5 10 6 0 17 -5 25 -10z
m306 -15 c-3 -9 0 -15 9 -15 8 0 15 -4 15 -9 0 -5 -9 -7 -19 -4 -19 5 -26 43
-8 43 5 0 7 -7 3 -15z m-86 -5 c8 -5 11 -10 5 -10 -5 0 -17 5 -25 10 -8 5 -10
10 -5 10 6 0 17 -5 25 -10z m-21 -14 c24 -13 24 -13 -8 -12 -17 1 -31 6 -31
14 0 15 9 15 39 -2z m116 -96 c4 -6 -1 -7 -11 -3 -12 4 -15 3 -10 -5 4 -7 2
-12 -3 -12 -12 0 -14 13 -4 23 9 10 21 9 28 -3z m-40 -30 c3 -6 -1 -7 -9 -4
-18 7 -21 14 -7 14 6 0 13 -4 16 -10z m4 -26 c14 -12 -19 -1 -35 12 -18 14
-18 14 6 3 14 -6 27 -13 29 -15z m45 7 c4 -5 -3 -7 -14 -4 -23 6 -26 13 -6 13
8 0 17 -4 20 -9z m21 -32 c15 -14 -7 -10 -35 7 l-25 15 25 -7 c14 -3 29 -10
35 -15z m-1 -31 c-3 -5 -12 -4 -20 3 -19 16 -18 18 6 12 11 -3 17 -9 14 -15z"/>
<path d="M11680 1480 c-22 -33 -38 -60 -36 -60 3 0 24 27 46 60 22 33 38 60
36 60 -3 0 -24 -27 -46 -60z"/>
<path d="M11559 1303 c-13 -16 -12 -17 4 -4 16 13 21 21 13 21 -2 0 -10 -8
-17 -17z"/>
<path d="M15138 1273 c-27 -32 -80 -114 -76 -118 4 -4 208 72 216 80 7 7 -85
55 -105 55 -11 0 -27 -8 -35 -17z"/>
<path d="M15287 1209 c7 -7 15 -10 18 -7 3 3 -2 9 -12 12 -14 6 -15 5 -6 -5z"/>
<path d="M15283 1186 c13 -10 15 -15 5 -19 -7 -2 -1 -4 14 -3 16 0 28 7 28 14
0 7 5 10 10 7 6 -4 7 -12 4 -18 -4 -8 -2 -7 7 1 12 11 12 14 -1 22 -19 12 -30
12 -30 0 0 -6 -10 -6 -27 0 -25 9 -26 9 -10 -4z"/>
<path d="M15560 1190 c8 -5 20 -10 25 -10 6 0 3 5 -5 10 -8 5 -19 10 -25 10
-5 0 -3 -5 5 -10z"/>
<path d="M3270 1031 c0 -135 1 -141 20 -141 20 0 20 5 18 137 -3 122 -5 138
-20 141 -16 3 -18 -9 -18 -137z"/>
<path d="M3960 1120 c0 -47 -11 -63 -25 -40 -9 15 -62 12 -94 -4 -28 -15 -51
-53 -51 -87 0 -28 27 -77 49 -89 25 -13 77 -13 102 0 13 7 19 7 19 0 0 -5 9
-10 20 -10 19 0 20 7 20 140 0 133 -1 140 -20 140 -17 0 -20 -7 -20 -50z m-37
-71 c29 -16 37 -28 37 -61 0 -35 -32 -68 -65 -68 -32 0 -65 33 -65 65 0 26 40
75 60 75 6 0 21 -5 33 -11z"/>
<path d="M4580 1150 c-11 -11 -20 -29 -20 -40 0 -11 -7 -20 -15 -20 -8 0 -15
-7 -15 -15 0 -8 7 -15 15 -15 12 0 15 -16 15 -85 0 -78 2 -85 20 -85 18 0 20
7 20 85 l0 85 31 0 c38 0 34 24 -5 28 -21 3 -27 8 -24 25 2 16 10 22 28 22 14
0 28 4 32 10 22 30 -52 35 -82 5z"/>
<path d="M6260 1119 c0 -45 -2 -50 -17 -44 -37 16 -71 16 -101 1 -61 -31 -65
-132 -8 -171 24 -17 79 -20 107 -5 13 7 19 7 19 0 0 -5 9 -10 20 -10 19 0 20
7 20 140 0 133 -1 140 -20 140 -17 0 -20 -7 -20 -51z m-12 -86 c31 -42 -1
-113 -53 -113 -32 0 -65 33 -65 65 0 39 44 79 78 70 15 -3 33 -13 40 -22z"/>
<path d="M15225 1160 c27 -12 43 -12 25 0 -8 5 -22 9 -30 9 -10 0 -8 -3 5 -9z"/>
<path d="M1620 1020 l0 -130 76 0 c123 0 178 40 178 130 0 92 -51 130 -174
130 l-80 0 0 -130z m188 67 c33 -33 37 -94 8 -126 -23 -26 -80 -44 -121 -39
l-30 3 -3 99 -3 98 61 -4 c49 -4 66 -9 88 -31z"/>
<path d="M15538 1129 c13 -5 21 -13 18 -18 -3 -5 4 -7 15 -4 21 6 21 6 -2 19
-13 7 -31 13 -39 13 -8 0 -5 -4 8 -10z"/>
<path d="M5340 1110 c0 -13 -7 -20 -20 -20 -11 0 -20 -6 -20 -14 0 -7 9 -16
20 -19 18 -4 20 -14 20 -75 0 -79 11 -95 61 -90 42 4 52 28 11 28 -36 0 -42
13 -42 86 0 53 0 54 30 54 20 0 30 5 30 15 0 10 -10 15 -30 15 -23 0 -30 4
-30 20 0 11 -7 20 -15 20 -8 0 -15 -9 -15 -20z"/>
<path d="M15510 1116 c14 -8 27 -12 29 -10 6 6 -1 11 -29 18 l-25 7 25 -15z"/>
<path d="M1939 1061 c-65 -66 -20 -171 73 -171 49 0 90 22 73 39 -8 8 -20 7
-43 -1 -27 -11 -37 -10 -60 3 -15 8 -28 22 -30 32 -3 15 6 17 77 17 88 0 90 2
66 55 -30 61 -107 74 -156 26z m111 -21 c32 -32 24 -40 -40 -40 -66 0 -79 15
-38 44 30 21 54 20 78 -4z"/>
<path d="M2168 1080 c-10 -6 -23 -20 -29 -31 -15 -29 11 -65 53 -74 58 -12 68
-16 68 -30 0 -20 -46 -30 -85 -17 -27 8 -35 7 -39 -4 -14 -36 110 -48 144 -14
11 11 20 27 20 35 0 25 -36 53 -79 60 -47 8 -58 19 -40 41 10 12 23 14 55 9
39 -5 66 6 50 22 -11 11 -101 13 -118 3z"/>
<path d="M2371 1076 c-89 -49 -51 -185 52 -186 46 0 77 15 77 36 0 12 -5 14
-17 9 -43 -19 -81 -17 -102 4 -35 35 -26 41 59 41 79 0 80 0 80 26 0 38 -50
84 -92 84 -18 -1 -44 -7 -57 -14z m87 -32 c41 -29 28 -44 -38 -44 -64 0 -72 8
-40 40 24 24 48 25 78 4z"/>
<path d="M2570 990 c0 -93 1 -100 20 -100 18 0 20 7 20 70 0 64 2 71 26 87 24
15 29 15 53 2 24 -13 26 -21 29 -87 3 -65 5 -72 23 -72 20 0 21 5 17 81 -3 70
-6 83 -27 100 -26 21 -72 25 -104 8 -16 -9 -22 -9 -25 0 -2 6 -10 11 -18 11
-11 0 -14 -20 -14 -100z"/>
<path d="M2793 1078 c65 -159 81 -188 101 -188 16 0 27 15 50 68 62 143 58
132 38 132 -13 0 -28 -21 -52 -76 -18 -41 -36 -72 -40 -67 -4 4 -20 38 -35 76
-21 50 -33 67 -48 67 -11 0 -17 -5 -14 -12z"/>
<path d="M3050 1063 c-71 -63 -26 -173 71 -173 57 0 99 42 99 99 0 57 -32 91
-91 98 -41 5 -50 2 -79 -24z m108 -19 c16 -11 22 -25 22 -54 0 -67 -69 -95
-109 -44 -27 35 -26 59 4 89 28 29 51 31 83 9z"/>
<path d="M3343 1078 c65 -159 81 -188 101 -188 16 0 27 15 50 68 62 143 58
132 38 132 -13 0 -28 -21 -52 -76 -18 -41 -36 -72 -40 -67 -4 4 -20 38 -35 76
-21 50 -33 67 -48 67 -11 0 -17 -5 -14 -12z"/>
<path d="M3599 1062 c-26 -24 -32 -36 -32 -72 0 -60 43 -100 106 -100 48 1 87
24 70 41 -8 8 -17 8 -31 0 -31 -16 -67 -13 -85 7 -31 35 -21 42 58 42 74 0 75
0 75 26 0 15 -12 38 -29 55 -40 39 -89 40 -132 1z m103 -19 c33 -30 23 -43
-37 -43 -59 0 -68 10 -38 42 20 22 51 23 75 1z"/>
<path d="M4104 1080 c-33 -13 -54 -50 -54 -93 0 -86 101 -128 169 -71 26 22
31 33 31 71 0 79 -70 124 -146 93z m84 -37 c32 -27 37 -64 12 -96 -41 -51
-110 -24 -110 43 0 61 54 90 98 53z"/>
<path d="M4300 990 c0 -93 1 -100 20 -100 18 0 20 7 20 63 0 67 17 97 53 97
10 0 17 8 17 20 0 24 -18 26 -48 4 -20 -14 -22 -14 -22 0 0 9 -9 16 -20 16
-19 0 -20 -7 -20 -100z"/>
<path d="M4690 990 c0 -93 1 -100 20 -100 18 0 20 7 20 69 0 71 7 86 45 93 26
4 33 38 8 38 -10 0 -29 -7 -41 -16 -20 -14 -22 -14 -22 0 0 9 -7 16 -15 16
-12 0 -15 -18 -15 -100z"/>
<path d="M4861 1064 c-38 -32 -49 -80 -27 -122 20 -39 44 -52 94 -52 51 0 89
30 98 76 18 98 -89 162 -165 98z m117 -31 c31 -42 -1 -113 -53 -113 -32 0 -65
33 -65 65 0 39 44 79 78 70 15 -3 33 -13 40 -22z"/>
<path d="M5080 990 c0 -93 1 -100 20 -100 18 0 20 7 20 70 0 64 2 71 26 87 24
15 29 15 53 2 24 -13 26 -21 29 -87 3 -65 5 -72 23 -72 20 0 21 5 17 81 -3 70
-6 83 -27 100 -26 21 -72 25 -104 8 -16 -9 -22 -9 -25 0 -2 6 -10 11 -18 11
-11 0 -14 -20 -14 -100z"/>
<path d="M5662 1080 c-56 -23 -66 -129 -15 -170 30 -23 99 -27 128 -7 24 18
11 41 -15 27 -40 -22 -110 1 -110 36 0 11 17 14 80 14 87 0 91 4 68 55 -21 46
-82 66 -136 45z m86 -36 c41 -29 28 -44 -38 -44 -46 0 -60 3 -60 14 0 17 38
46 60 46 9 0 26 -7 38 -16z"/>
<path d="M5860 990 c0 -93 1 -100 20 -100 18 0 20 7 20 70 0 64 2 71 26 87 24
15 29 15 53 2 24 -13 26 -21 29 -87 3 -65 5 -72 23 -72 20 0 21 5 17 81 -3 70
-6 83 -27 100 -26 21 -72 25 -104 8 -16 -9 -22 -9 -25 0 -2 6 -10 11 -18 11
-11 0 -14 -20 -14 -100z"/>
<path d="M15460 1066 c0 -2 7 -7 16 -10 8 -3 12 -2 9 4 -6 10 -25 14 -25 6z"/>
<path d="M8956 1031 c8 -17 13 -35 9 -41 -3 -5 4 -27 15 -50 14 -27 17 -40 8
-40 -7 0 -2 -7 10 -16 13 -9 21 -22 18 -29 -2 -7 7 -18 21 -24 14 -6 23 -17
20 -24 -3 -8 8 -19 24 -26 16 -7 27 -16 25 -20 -3 -4 11 -13 31 -20 24 -9 31
-16 23 -21 -9 -5 -5 -10 11 -15 44 -12 70 -29 65 -42 -3 -8 8 -16 32 -23 43
-12 84 -40 61 -41 -8 0 5 -6 29 -14 24 -7 51 -20 61 -29 10 -9 21 -13 26 -9 4
5 5 0 2 -9 -5 -13 -1 -18 13 -18 32 0 73 -22 58 -32 -9 -5 -5 -8 12 -8 14 -1
39 -7 55 -15 24 -11 26 -14 10 -15 -17 -1 -16 -3 5 -10 14 -4 38 -11 53 -15
20 -4 27 -10 23 -20 -3 -10 1 -15 13 -15 30 0 45 -25 26 -43 -17 -18 -12 -21
60 -32 77 -13 196 -59 215 -84 3 -4 25 -15 50 -26 25 -10 61 -29 81 -42 20
-12 39 -19 42 -16 3 3 11 2 18 -3 9 -5 8 -9 -5 -14 -13 -4 0 -12 43 -25 33
-10 61 -21 61 -25 0 -3 24 -16 54 -29 38 -16 53 -27 49 -37 -4 -12 17 -14 133
-14 116 0 135 2 117 13 -22 12 -859 538 -958 602 -168 109 -583 364 -652 402
l-82 44 15 -30z"/>
<path d="M15573 1035 c0 -8 4 -12 9 -9 4 3 8 9 8 15 0 5 -4 9 -8 9 -5 0 -9 -7
-9 -15z"/>
<path d="M5470 996 c0 -13 12 -16 56 -16 73 0 70 24 -4 28 -42 2 -52 0 -52
-12z"/>
<path d="M15707 989 c7 -7 15 -10 18 -7 3 3 -2 9 -12 12 -14 6 -15 5 -6 -5z"/>
<path d="M15710 940 c8 -5 20 -10 25 -10 6 0 3 5 -5 10 -8 5 -19 10 -25 10 -5
0 -3 -5 5 -10z"/>
<path d="M15830 919 c0 -7 -10 -9 -25 -7 -29 6 -39 -12 -16 -29 15 -11 14 -12
-1 -13 -9 0 -19 -4 -22 -9 -4 -5 10 -4 30 2 35 11 35 11 12 24 l-23 14 25 -5
c20 -4 26 -1 27 14 1 11 0 20 -3 20 -2 0 -4 -5 -4 -11z"/>
<path d="M15730 910 c8 -5 20 -10 25 -10 6 0 3 5 -5 10 -8 5 -19 10 -25 10 -5
0 -3 -5 5 -10z"/>
<path d="M15307 893 c-15 -14 -6 -33 16 -33 30 0 40 10 26 27 -12 14 -32 17
-42 6z"/>
<path d="M15700 800 c8 -5 20 -10 25 -10 6 0 3 5 -5 10 -8 5 -19 10 -25 10 -5
0 -3 -5 5 -10z"/>
<path d="M15015 780 c-3 -11 -13 -20 -21 -20 -8 0 -14 -9 -14 -21 0 -15 -5
-19 -16 -15 -8 3 -12 2 -9 -4 3 -5 3 -26 -1 -45 -5 -31 -9 -35 -28 -29 -21 6
-21 6 -1 -10 11 -8 16 -16 11 -16 -5 0 -2 -8 5 -17 10 -11 10 -14 2 -9 -7 4
-13 3 -13 -3 0 -5 6 -12 13 -14 6 -3 3 -6 -8 -7 -18 -1 -18 -2 5 -16 l25 -15
-30 5 c-16 3 -24 3 -17 0 6 -3 12 -12 12 -20 0 -8 8 -14 18 -14 14 0 15 2 2
10 -8 5 -10 10 -5 10 6 0 17 -5 25 -10 8 -5 10 -10 4 -10 -7 0 -9 -11 -6 -25
4 -21 1 -24 -14 -20 -11 4 -6 -1 9 -10 15 -9 25 -20 22 -25 -4 -6 -1 -10 5
-10 7 0 9 -7 6 -16 -4 -12 -2 -15 9 -10 9 3 15 0 15 -9 0 -8 5 -15 11 -15 5 0
7 -4 4 -10 -3 -5 -2 -10 2 -10 12 0 83 -67 77 -73 -2 -2 12 -12 31 -23 19 -10
35 -22 35 -26 0 -4 39 -33 88 -64 48 -31 119 -81 159 -111 49 -37 79 -54 95
-51 20 3 5 22 -123 158 -209 221 -264 287 -298 355 -35 69 -61 162 -61 217 0
21 -4 38 -10 38 -5 0 -7 7 -4 15 4 8 4 15 1 15 -3 0 -9 -9 -12 -20z"/>
<path d="M15805 770 c-13 -6 -15 -9 -5 -9 8 0 22 4 30 9 18 12 2 12 -25 0z"/>
<path d="M14195 750 c8 -29 28 -54 23 -30 -2 8 2 14 9 13 7 -2 10 4 6 13 -3 8
-8 12 -11 10 -3 -3 -12 0 -20 7 -13 10 -14 8 -7 -13z"/>
<path d="M15730 740 c8 -5 20 -10 25 -10 6 0 3 5 -5 10 -8 5 -19 10 -25 10 -5
0 -3 -5 5 -10z"/>
<path d="M15486 691 c-21 -39 -57 -60 -127 -73 -68 -12 -94 -30 -80 -56 5 -9
40 -47 78 -83 67 -65 82 -71 111 -42 7 7 21 13 30 13 15 0 15 2 2 10 -13 9
-13 10 0 10 12 1 11 3 -3 14 -16 13 -16 14 10 21 l28 7 -25 19 c-14 10 -20 19
-14 19 18 0 51 34 47 47 -2 7 -10 11 -16 9 -7 -1 -9 -1 -4 1 4 3 4 10 1 15 -4
6 1 17 11 25 12 8 14 13 6 13 -7 0 -11 6 -8 14 4 9 -2 18 -15 22 -16 5 -18 8
-7 15 10 6 10 9 2 9 -7 0 -19 -13 -27 -29z"/>
<path d="M14936 693 c-6 -14 -5 -15 5 -6 7 7 10 15 7 18 -3 3 -9 -2 -12 -12z"/>
<path d="M15710 699 c0 -5 9 -9 20 -9 11 0 20 2 20 4 0 2 -9 6 -20 9 -11 3
-20 1 -20 -4z"/>
<path d="M14395 681 c-6 -5 -21 -11 -35 -13 -17 -2 -24 -8 -22 -20 3 -18 -78
-77 -132 -98 -14 -5 -37 -27 -51 -48 -23 -35 -25 -45 -18 -88 8 -48 9 -49 46
-52 35 -3 47 -14 28 -26 -5 -3 -11 -16 -14 -28 -2 -13 -8 -31 -12 -40 -5 -13
-3 -18 9 -18 9 0 16 -8 16 -20 0 -12 11 -42 24 -69 15 -28 23 -57 19 -70 -3
-13 -1 -21 7 -21 8 0 10 -8 7 -22 -11 -39 17 -47 161 -48 74 0 132 3 130 8
-28 53 -39 87 -29 90 6 2 21 13 33 24 l23 20 -25 -7 c-87 -23 -124 -36 -136
-46 -8 -7 -17 -10 -20 -7 -3 3 16 18 41 32 25 15 45 30 45 35 0 4 11 13 24 19
27 12 96 5 96 -10 0 -11 50 -2 63 11 4 4 2 21 -4 37 -7 16 -13 32 -13 36 -1 4
-6 12 -12 18 -9 9 -23 6 -55 -9 -24 -11 -36 -20 -26 -21 35 0 15 -18 -45 -39
-35 -12 -82 -31 -105 -41 -48 -22 -58 -19 -15 5 64 35 66 38 43 90 l-20 46 22
8 c13 5 29 16 36 25 22 26 -16 20 -69 -10 -46 -27 -90 -46 -90 -40 0 2 18 16
40 31 22 15 40 34 40 41 0 19 28 30 77 33 34 1 42 -1 37 -13 -5 -13 -1 -13 25
-3 35 13 37 23 17 71 -19 46 -27 48 -72 26 -21 -11 -32 -20 -25 -20 21 0 -4
-25 -52 -53 -23 -13 -59 -34 -79 -46 -48 -29 -50 -14 -3 18 19 13 35 30 35 38
0 7 -11 36 -26 64 l-25 50 26 21 c14 11 24 22 22 25 -7 6 -149 -67 -174 -90
-13 -11 -26 -18 -29 -14 -11 10 26 59 41 53 14 -5 58 24 101 67 31 31 44 33
88 12 24 -12 40 -13 59 -6 28 11 28 18 4 74 -16 36 -34 46 -52 28z m-175 -235
c0 -2 -7 -6 -15 -10 -8 -3 -15 -1 -15 4 0 6 7 10 15 10 8 0 15 -2 15 -4z m-5
-51 c-39 -18 -55 -18 -55 0 0 11 11 15 43 14 l42 -1 -30 -13z"/>
<path d="M14237 621 c-3 -12 -1 -21 3 -21 15 0 23 21 12 32 -6 6 -11 2 -15
-11z"/>
<path d="M15535 630 c3 -5 14 -10 23 -10 15 0 15 2 2 10 -20 13 -33 13 -25 0z"/>
<path d="M15510 546 c0 -2 7 -7 16 -10 8 -3 12 -2 9 4 -6 10 -25 14 -25 6z"/>
<path d="M15441 406 c2 -2 15 -9 29 -15 24 -11 24 -11 6 3 -16 13 -49 24 -35
12z"/>
<path d="M14989 88 c-40 -34 -52 -57 -39 -73 19 -23 46 -18 64 11 29 43 10 91
-25 62z"/>
<path d="M14695 37 c-36 -22 -28 -37 20 -37 45 0 50 5 39 34 -7 19 -31 20 -59
3z"/>
</g>
</svg>
